<svg xmlns="http://www.w3.org/2000/svg" width="753" height="280"><path fill-rule="evenodd" fill="#DDD" d="M720.875.125v178h32v51.75h-32v50h-59.75v-50h-132v-60L650.875.125h70zm-1 1v177.25l.75.75h31.25v49.75h-31.25l-.75.75v49.25h-57.75v-49.25l-.75-.75h-131.25v-58.5l121.5-169.25h68.25zm-58.25 68.75v109h-77.25c0-.25-.25-.25-.25-1 0-.5 8.5-12.5 12.75-18.5 3.5-5 7.25-10.25 10.75-15.25 3.25-4.5 6.5-9.25 9.5-13.5 2.25-3.5 5-7.5 7.75-11 2-3 4.25-6.5 6.5-9.25 7.75-11.25 28-41 29.5-41 .5 0 .75.25.75.5zm-.75 108h-75.5l75.5-107.5v107.5zm-469-177.75v178h32v51.75h-32v50h-59.75v-50h-132v-60L121.875.125h70zm-1 1v177.25l.75.75h31.25v49.75h-31.25l-.75.75v49.25h-57.75v-49.25l-.75-.75H1.125v-58.5l121.5-169.25h68.25zm-58.25 68.75v109h-77.25c0-.25-.25-.25-.25-1 0-.5 8.5-12.5 12.75-18.5 3.5-5 7.25-10.25 10.75-15.25 3.25-4.5 6.5-9.25 9.5-13.5 2.25-3.5 5-7.5 7.75-11 2-3 4.25-6.5 6.5-9.25 7.75-11.25 28-41 29.5-41 .5 0 .75.25.75.5zm-.75 108h-75.5l75.5-107.5v107.5zm300-177.75c2.75.25 5.5.5 8 1 3 .75 7.25 2.25 10.75 3.25 12.25 3.5 30.25 22 33.25 34.25.5 2 1.5 4.25 2 6.25 1 3.25 2 9.75 2 10.5v169c-.25 2.5-.75 5-1.25 7.5-.75 3-2.25 7.25-3.25 10.75-3.5 12.25-22 30.25-34 33.25-2 .5-4.5 1.5-6.25 2-3.5 1-10 2-10.75 2h-113c-2.25-.25-5-.75-7.25-1.25-3.25-.75-7.75-2.25-10.75-3.25-13.5-4.5-29.25-21-33.5-34-.75-2.5-1.75-4.75-2.25-7.25-.5-3-1.5-9-1.5-9.5V55.375c.5-2.75.75-5.75 1.25-8.5.75-2.75 1.75-5.5 2.5-8.25 5-16.75 25.25-32.75 36.75-35.5 2.5-.5 5-1.5 7.5-2 2.25-.5 5.25-.75 7.75-1h112zm-2.25 1l8.25.75c13.75 1.5 34.75 14.25 42.5 31.5 1 2.25 2.25 4.75 3 7 1 3 2 6.5 2.5 9.75.25 2.25 1 6.5 1 7.25v164.75c-.5 4-1 7.75-1.75 11.5-.5 2-1.25 3.75-1.75 6-4.25 16.25-25.75 33.75-36.5 36-3.25.5-6.25 1.75-9 2.25-2.25.25-6.75 1-7.5 1h-109c-2.25-.25-4.75-.75-7.25-1-13.75-1.75-34.25-13.25-42.5-30.75-.75-2-1.75-4-2.5-5.5-.75-2.5-2-5.25-2.5-8-.75-3.5-1.5-10.25-1.5-10.75V57.125c.25-3.25.75-6.75 1.25-9.75.25-1.5 1-3.5 1.25-4.75s1-2.75 1.5-4.25c4-14 23.5-31.5 36.75-34.5 2.75-.5 5.5-1.5 8.25-2 2.25-.5 5.25-.5 7.75-.75h107.75zm-11.75 50c10 0 19 11.25 19 18.25v141c-.25 1-.75 2-.75 3-1 7-11 15.5-17.75 15.5h-85c-.75-.25-2-.75-2.75-.75-8.5-1-15.5-12.25-15.5-17.5V69.375c.25-.75.5-2 .5-2.75.75-7.25 11.5-16 18.25-15.5h84zm-1.25 1c10.25 0 19.25 10 19.25 18.5v138.5c-.25 9.75-10.25 18.75-18.75 18.75h-82.5c-9.75-.25-18.5-10.25-18.5-18.5V70.625c.25-.75.25-1.75.25-2.25.75-6.75 9.25-15.25 16-16 .5 0 1.75 0 2.75-.25h81.5z"/></svg>