<svg xmlns="http://www.w3.org/2000/svg" width="11" height="14"><path fill-rule="evenodd" fill="#333" d="M8.386 11.181a22.777 22.777 0 01-2.549 2.541L5.5 14l-.337-.278a22.777 22.777 0 01-2.549-2.541C.879 9.15 0 7.328 0 5.764v-.155C0 2.516 2.467 0 5.5 0S11 2.516 11 5.609v.155c0 1.564-.879 3.386-2.614 5.417zm1.541-5.572c0-2.49-1.986-4.515-4.427-4.515S1.073 3.119 1.073 5.609v.155c0 2.643 3.34 5.842 4.427 6.814 1.087-.972 4.427-4.171 4.427-6.814v-.155zM5.5 8.208c-1.405 0-2.549-1.166-2.549-2.599 0-1.434 1.144-2.6 2.549-2.6s2.549 1.166 2.549 2.6c0 1.433-1.144 2.599-2.549 2.599zm0-4.104c-.814 0-1.476.675-1.476 1.505 0 .829.662 1.504 1.476 1.504s1.475-.675 1.475-1.504c0-.83-.661-1.505-1.475-1.505z"/></svg>