<svg xmlns="http://www.w3.org/2000/svg" width="350" height="373"><path fill-rule="evenodd" fill="#FEC346" d="M349.982 182.212a2.508 2.508 0 00-.144-.781c-.023-.056-.036-.114-.061-.168-.025-.053-.015-.063-.03-.093L286.678 50.124V14.497c3.896-1.317 5.988-5.546 4.673-9.446a7.46 7.46 0 00-2.646-3.622 7.236 7.236 0 00-6.539-1.08l-104.03 45.102a13.787 13.787 0 00-9.397-3.731 13.985 13.985 0 00-13.584 10.993L63.431 92.072c-3.916 1.264-6.067 5.467-4.804 9.387a7.459 7.459 0 002.676 3.719 7.453 7.453 0 002.027 1.054v35.686L.266 272.966l-.033.094-.058.167a2.49 2.49 0 00-.157.781c0 .03-.018.059-.018.091v2.536c.013 9.799 7.945 17.739 17.735 17.751h96.267c9.789-.012 17.722-7.952 17.735-17.751v-2.536c0-.032-.018-.058-.018-.091a2.548 2.548 0 00-.157-.781c-.023-.056-.036-.114-.061-.167-.025-.053-.015-.064-.03-.094L68.402 141.92v-35.835l91.602-39.323a13.928 13.928 0 002.402 1.572v268.809h-40.534a2.534 2.534 0 00-2.534 2.536v7.708H98.937a2.535 2.535 0 00-2.533 2.536v7.73H76.003a2.534 2.534 0 00-2.533 2.535v10.276A2.534 2.534 0 0076.003 373h188.006c1.4 0 2.534-1.135 2.534-2.536v-10.265a2.534 2.534 0 00-2.534-2.536h-20.4v-7.74c0-1.4-1.135-2.536-2.534-2.536h-20.4v-7.719c0-1.4-1.135-2.536-2.534-2.536h-40.534V67.356a2.487 2.487 0 00-.127-.634 14.027 14.027 0 004.404-6.229c.083-.233.116-.479.185-.714l99.542-43.669v34.014L218.529 181.17l-.033.093-.058.168c-.093.25-.146.514-.157.781 0 .03-.018.058-.018.091v2.536c.013 9.798 7.946 17.739 17.735 17.751h96.267c9.789-.012 17.722-7.953 17.735-17.751v-2.536c0-.033-.018-.058-.018-.091zm-235.98 107.103H17.735c-6.993-.008-12.66-5.681-12.668-12.68H126.67c-.009 6.999-5.675 12.672-12.668 12.68zm10.342-17.752H7.393l58.475-124.896 58.476 124.896zM66.317 101.437a2.232 2.232 0 01-2.027-.337 2.388 2.388 0 01.661-4.179 268731.17 268731.17 0 0090.054-38.844 14.003 14.003 0 001.508 4.468l-90.196 38.892zm195.159 261.297v5.194H78.537v-5.194h182.939zm-22.934-10.275v5.204H101.471v-5.204h137.071zm-22.934-10.255v5.183h-91.203v-5.183h91.203zm-48.135-5.072V69.891l5.067-.01v267.251h-5.067zM177.1 58.807c-1.647 4.713-6.799 7.196-11.508 5.548-4.709-1.649-7.19-6.806-5.543-11.519 1.648-4.713 6.8-7.197 11.509-5.548a9.04 9.04 0 015.542 11.519zm5.501-4.511a14.062 14.062 0 00-1.288-4.539L283.696 5.182a2.25 2.25 0 012.027.338 2.388 2.388 0 01-.662 4.182l-102.46 44.594zm101.543.575l58.476 124.896H225.669l58.475-124.896zm48.134 142.647h-96.267c-6.993-.008-12.66-5.68-12.668-12.679h121.602c-.008 6.999-5.674 12.671-12.667 12.679zM267 138v5h35v-5h-35zM63 215v15H48v5h15v15h5v-15h15v-5H68v-15h-5z"/></svg>