<svg xmlns="http://www.w3.org/2000/svg" width="15" height="10"><path fill-rule="evenodd" fill="#333" d="M.5 3.714c0 .859.331 1.666.932 2.273.601.607 1.4.941 2.25.941h5.727A1.92 1.92 0 0011.318 5a1.92 1.92 0 00-1.909-1.929H6.104a.64.64 0 00-.636.643.64.64 0 00.636.643h3.305a.64.64 0 01.636.643.64.64 0 01-.636.643H3.682c-.51 0-.99-.201-1.35-.565a1.924 1.924 0 01-.559-1.364 1.92 1.92 0 011.909-1.928h6.363c1.755 0 3.182 1.442 3.182 3.214a3.21 3.21 0 01-.932 2.273c-.601.607-1.4.941-2.25.941H3.682a.64.64 0 00-.637.643.64.64 0 00.637.643h6.363c1.19 0 2.309-.468 3.15-1.318A4.491 4.491 0 0014.5 5c0-2.481-1.998-4.5-4.455-4.5H3.682C1.927.5.5 1.942.5 3.714z"/></svg>