<svg xmlns="http://www.w3.org/2000/svg" width="134" height="80"><path fill-rule="evenodd" fill="#FFE599" d="M103.721 11.183C103.721 5.007 87.281 0 67 0 46.719 0 30.279 5.007 30.279 11.183v53.763c0 7.127 5.768 12.903 12.884 12.903h47.674c7.116 0 12.884-5.776 12.884-12.903V11.183z"/><path fill-rule="evenodd" opacity=".2" fill="#343440" d="M53.471 24.086v40.86h8.375v-18.71c.058-3.691 3.065-6.667 6.765-6.667 1.857 0 3.54.75 4.763 1.964l.068-.028 7.087 7.097V24.086H53.471z"/><path fill-rule="evenodd" fill="#333" d="M94.304 34.492a3.455 3.455 0 013.452-3.457h1.942a6.917 6.917 0 006.47-5.187c.142.553.217 1.132.217 1.729 0 3.819-3.09 6.915-6.903 6.915h-5.178zm3.452-11.669v-2.161h1.726a3.455 3.455 0 013.452 3.457 3.454 3.454 0 01-1.237 2.652l-3.941-3.948zM68.718 46.451l21.904 21.936H76.878l-2.147 2.15-1.289 1.29-4.724 4.732V46.451zM39.696 34.492h-5.178c-3.813 0-6.904-3.096-6.904-6.915 0-.597.076-1.176.218-1.729a6.909 6.909 0 006.47 5.183l.216.004h1.726a3.455 3.455 0 013.452 3.457zm-3.452-11.669l-3.942 3.948a3.457 3.457 0 01-1.236-2.652 3.455 3.455 0 013.452-3.457h1.726v2.161zm29.038 45.564H49.116a6.858 6.858 0 00.919-3.441V20.645h33.93v36.344L71.65 44.657c-.906-.907-1.691-1.647-2.932-1.647a3.439 3.439 0 00-3.436 3.441v21.936zm-22.119 3.44h22.119v4.732c0 1.9 1.538 3.441 3.436 3.441a3.433 3.433 0 002.932-1.646l6.517-6.527h12.455a3.438 3.438 0 003.436-3.44c0-.619-.564-1.855-1.643-2.936l-5.014-5.021V37.95h11.434l2.811 2.816a7.04 7.04 0 001.719 7.125l6.187 6.196 1.256 1.259-2.577 2.718h-4.51v3.441h5.685l6.256-6.267-2.373-2.377-1.779-1.782c-.884-1.356-.75-3.172.415-4.339 1.34-1.342 3.581-1.383 4.951-.011l.029.029c2.025 2.029 5.25 2.088 7.216.119 1.953-1.956 1.918-5.167-.067-7.198l.072-.072a1.734 1.734 0 010-2.449l-.072-.072.022-.023-2.373-2.378-.022.023a5.203 5.203 0 00-.041 7.307l.013.013c.662.677.674 1.748.023 2.4-.638.64-1.678.641-2.356.014-.07-.069-.06-.079-.06-.079l-6.187-6.197L134 17.204h-4.746l-20.927 20.962 1.079 1.081 1.294 1.296 1.921 1.924a6.714 6.714 0 00-3.177 1.788 6.728 6.728 0 00-1.741 3.011l-1.857-1.861a3.518 3.518 0 01-.005-4.964l.113-.114-2.978-2.983c4-1.435 6.861-5.267 6.861-9.767 0-5.729-4.636-10.373-10.355-10.373h-5.178v6.915l3.452 3.458c-3.813 0-6.904 3.096-6.904 6.915h-3.451V24.086a3.438 3.438 0 013.436-3.441v-3.441H43.163v3.441a3.438 3.438 0 013.436 3.441v10.406h-3.451c0-3.819-3.091-6.915-6.904-6.915l3.452-3.458v-6.915h-5.178c-5.719 0-10.355 4.644-10.355 10.373 0 4.5 2.861 8.332 6.86 9.767l-2.977 2.983.108.108a3.525 3.525 0 010 4.97l-1.857 1.861a6.728 6.728 0 00-1.741-3.011 6.714 6.714 0 00-3.177-1.788l1.921-1.924 1.294-1.296 1.079-1.081L4.746 17.204H0l20.927 20.962-6.187 6.197-.07.07c-.677.626-1.708.635-2.346-.005-.651-.652-.64-1.723.023-2.4l.013-.013a5.203 5.203 0 00-.042-7.307l-.021-.023-2.374 2.378.022.023-.071.072a1.734 1.734 0 010 2.449l.072.072c-1.986 2.031-2.02 5.242-.067 7.198 1.966 1.969 5.201 1.921 7.227-.108.018-.019.007-.029.007-.029 1.37-1.373 3.622-1.342 4.962 0 1.165 1.167 1.299 2.983.415 4.339l-1.779 1.782-2.373 2.377 6.256 6.267h5.685v-3.441h-4.51l-2.577-2.718 1.256-1.259 6.187-6.196a7.04 7.04 0 001.719-7.125l2.811-2.816h11.434v26.996c0 1.9-1.538 3.441-3.436 3.441a3.438 3.438 0 01-3.435-3.441c0-1.9 1.538-3.441 3.435-3.441v-3.441c-3.795 0-6.871 3.081-6.871 6.882 0 3.801 3.076 6.881 6.871 6.881zm21.723-34.95c-5.304 2.133-7.879 8.128-5.773 13.425l3.203-1.266c-1.414-3.539.309-7.546 3.857-8.965 3.563-1.425 7.633.291 9.079 3.85l3.266-1.292c-2.18-5.34-8.293-7.899-13.632-5.752zM75.59 6.881v3.441h-3.436V6.881h-3.436v3.441h-3.436V6.881h-3.436v3.441H58.41V6.881h-3.436v6.882h24.052V6.881H75.59zm53.041 25.377l-2.362-2.366-2.362 2.366 2.362 2.365 2.362-2.365zM95.346 51.182h-4.509v3.441h5.798l4.573-4.571-2.265-2.269-.014-.014a3.519 3.519 0 01.014-4.957l-2.481-2.485a7.037 7.037 0 00-.107 9.831l-1.009 1.024zm16.864-26.414l2.374 2.377 9.923-9.941h-4.746l-7.551 7.564zM5.368 32.258l2.363 2.365 2.362-2.365-2.362-2.366-2.363 2.366zm33.286 18.924l-1.009-1.024a7.037 7.037 0 00-.107-9.831l-2.481 2.485a3.519 3.519 0 01.014 4.957l-.014.014-2.265 2.269 4.573 4.571h5.798v-3.441h-4.509zM21.79 24.768l-7.551-7.564H9.492l9.924 9.941 2.374-2.377zm69.047 36.737a3.438 3.438 0 013.435 3.441h3.436c0-3.801-3.076-6.882-6.871-6.882v3.441z"/></svg>