<svg xmlns="http://www.w3.org/2000/svg" width="134" height="80"><path fill-rule="evenodd" fill="#FFF" d="M94.304 34.493a3.455 3.455 0 013.452-3.458h1.942a6.917 6.917 0 006.47-5.187c.142.553.217 1.132.217 1.729 0 3.819-3.09 6.916-6.903 6.916h-5.178zm3.452-11.67v-2.161h1.726a3.455 3.455 0 013.452 3.458 3.454 3.454 0 01-1.237 2.651l-3.941-3.948zM68.718 46.451l21.904 21.936H76.878l-2.147 2.15-1.289 1.291-4.724 4.731V46.451zM39.696 34.493h-5.178c-3.813 0-6.903-3.097-6.903-6.916 0-.597.075-1.176.217-1.729a6.909 6.909 0 006.47 5.183l.216.004h1.726a3.455 3.455 0 013.452 3.458zm-3.452-11.67l-3.942 3.948a3.456 3.456 0 01-1.236-2.651 3.455 3.455 0 013.452-3.458h1.726v2.161zm29.038 45.564H49.116a6.853 6.853 0 00.919-3.441V20.645h33.93v36.344L71.65 44.657c-.906-.907-1.691-1.646-2.932-1.646a3.438 3.438 0 00-3.436 3.44v21.936zm-22.119 3.441h22.119v4.731c0 1.9 1.538 3.441 3.436 3.441a3.432 3.432 0 002.932-1.647l6.517-6.525h12.455a3.44 3.44 0 003.436-3.441c0-.619-.564-1.855-1.643-2.936l-5.014-5.021V37.95h11.434l2.811 2.816a7.037 7.037 0 001.719 7.124l6.187 6.198 1.256 1.258-2.577 2.718h-4.51v3.441h5.685l6.256-6.267-2.373-2.377-1.779-1.782c-.885-1.356-.75-3.172.415-4.339 1.34-1.343 3.581-1.383 4.951-.011l.029.029c2.025 2.029 5.25 2.088 7.216.119 1.953-1.956 1.919-5.167-.067-7.198l.072-.072a1.735 1.735 0 010-2.45l-.072-.071.022-.024-2.373-2.377-.022.023a5.204 5.204 0 00-.041 7.307l.013.013c.663.677.674 1.748.023 2.4-.638.639-1.678.641-2.356.015-.07-.07-.06-.08-.06-.08l-6.187-6.197L134 17.204h-4.746l-20.927 20.962 1.079 1.081 1.294 1.296 1.921 1.924a6.714 6.714 0 00-3.177 1.788 6.728 6.728 0 00-1.741 3.011l-1.857-1.861a3.518 3.518 0 01-.005-4.964l.113-.114-2.978-2.982c4-1.436 6.861-5.268 6.861-9.768 0-5.729-4.636-10.373-10.355-10.373h-5.178v6.916l3.452 3.457c-3.813 0-6.904 3.096-6.904 6.916h-3.451V24.086a3.438 3.438 0 013.435-3.441v-3.441H43.163v3.441a3.438 3.438 0 013.436 3.441v10.407h-3.451c0-3.82-3.091-6.916-6.904-6.916l3.452-3.457v-6.916h-5.178c-5.719 0-10.355 4.644-10.355 10.373 0 4.5 2.861 8.332 6.86 9.768l-2.977 2.982.108.108a3.526 3.526 0 010 4.97l-1.857 1.861a6.728 6.728 0 00-1.741-3.011 6.714 6.714 0 00-3.177-1.788l1.921-1.924 1.294-1.296 1.079-1.081L4.746 17.204H0l20.926 20.962-6.186 6.197-.07.07c-.677.626-1.708.634-2.346-.005-.651-.652-.64-1.723.023-2.4l.013-.013a5.204 5.204 0 00-.041-7.307l-.022-.023-2.373 2.377.022.024-.072.071a1.735 1.735 0 010 2.45l.072.072c-1.986 2.031-2.02 5.242-.067 7.198 1.966 1.969 5.201 1.921 7.227-.108.018-.018.007-.029.007-.029 1.37-1.373 3.622-1.343 4.962 0 1.165 1.167 1.299 2.983.415 4.339l-1.779 1.782-2.373 2.377 6.256 6.267h5.685v-3.441h-4.51l-2.577-2.718 1.256-1.258 6.187-6.198a7.037 7.037 0 001.719-7.124l2.811-2.816h11.434v26.996c0 1.9-1.538 3.441-3.436 3.441a3.438 3.438 0 01-3.435-3.441c0-1.9 1.538-3.441 3.435-3.441v-3.441c-3.795 0-6.871 3.081-6.871 6.882 0 3.801 3.076 6.882 6.871 6.882zm21.723-34.951c-5.304 2.134-7.879 8.128-5.773 13.425l3.203-1.266c-1.414-3.539.309-7.546 3.857-8.965 3.564-1.425 7.632.291 9.079 3.85l3.266-1.291c-2.181-5.341-8.293-7.9-13.632-5.753zM75.59 6.882v3.441h-3.436V6.882h-3.436v3.441h-3.436V6.882h-3.436v3.441H58.41V6.882h-3.436v6.881h24.052V6.882H75.59zm53.041 25.376l-2.362-2.365-2.362 2.365 2.362 2.365 2.362-2.365zM95.346 51.183h-4.51v3.44h5.799l4.573-4.571-2.265-2.269-.014-.014a3.519 3.519 0 01.014-4.957l-2.481-2.485a7.038 7.038 0 00-.107 9.832l-1.009 1.024zm16.864-26.415l2.374 2.377 9.924-9.941h-4.747l-7.551 7.564zM5.368 32.258l2.363 2.365 2.362-2.365-2.362-2.365-2.363 2.365zm33.286 18.925l-1.009-1.024a7.038 7.038 0 00-.107-9.832l-2.481 2.485a3.519 3.519 0 01.014 4.957l-.014.014-2.265 2.269 4.573 4.571h5.798v-3.44h-4.509zM21.789 24.768l-7.55-7.564H9.492l9.924 9.941 2.373-2.377zm69.047 36.737a3.439 3.439 0 013.436 3.441h3.436c0-3.801-3.076-6.882-6.872-6.882v3.441z"/><path fill-rule="evenodd" opacity=".2" fill="#FFF" d="M98.875 5.625c1 .5 4.75 3 4.75 4.75v56.25c-.25 5.5-7 11.25-11.75 11.25h-50c-5 0-11.5-6.25-11.5-11v-56.5c4.25-8.75 27.75-10.25 36.5-10.25 10 0 22.5 1.25 32 5.5zm3.75 5.5v54.25c.5 4-5 11.25-10 11.25h-51.75c-5.25-1-9.5-6.5-9.5-10.75v-55c.25-6 22.5-9.5 28.25-9.5h14.25c4.75 0 28.75 3 28.75 9.75z"/></svg>