<svg xmlns="http://www.w3.org/2000/svg" width="32" height="30"><path fill-rule="evenodd" fill="#FFDEA3" d="M12 20l-3 3h11l5 5v-4h4l2-2V6l-2-2h-3v14l-2 2H12z"/><path fill-rule="evenodd" fill="#FEC346" d="M29.187 24.375h-2.812v4.687c0 .838-1.014 1.25-1.6.663l-5.351-5.35H8.826l-1.601 1.6c-.586.587-1.6.174-1.6-.663v-4.687H2.812A2.816 2.816 0 010 17.812v-15A2.815 2.815 0 012.812 0h20.75a2.815 2.815 0 012.813 2.812v.938h2.812A2.816 2.816 0 0132 6.562v15a2.816 2.816 0 01-2.813 2.813zM24.5 2.812a.938.938 0 00-.938-.937H2.812a.938.938 0 00-.937.937v15c0 .517.42.938.937.938h3.75c.518 0 .938.42.938.937v3.362l4.025-4.024a.935.935 0 01.662-.275h11.375a.94.94 0 00.938-.938v-15zm5.625 3.75a.938.938 0 00-.938-.937h-2.812v12.187a2.816 2.816 0 01-2.813 2.813H12.576L10.701 22.5h9.111c.249 0 .488.099.663.274l4.025 4.025v-3.362c0-.518.42-.937.937-.937h3.75a.94.94 0 00.938-.938v-15zm-8.438 4.688h-17a.938.938 0 010-1.875h17a.938.938 0 110 1.875zm-3.75-3.751H4.687a.937.937 0 110-1.874h13.25a.938.938 0 110 1.874zm-13.25 5.626h9.5a.937.937 0 110 1.875h-9.5a.938.938 0 010-1.875z"/></svg>