<svg xmlns="http://www.w3.org/2000/svg" width="17" height="18"><path fill-rule="evenodd" opacity=".902" fill="#FFE599" d="M10.751 13.929c2.12 0 3.934 1.307 4.722 3.174.203.479.702.897 1.212.897.263 0 .409-.42.247-.915-.862-2.641-3.302-4.557-6.181-4.557H6.226c-2.869 0-5.321 1.909-6.186 4.557-.162.495.185.915.695.915.265 0 .567-.418.77-.896.79-1.86 2.603-3.175 4.721-3.175h4.525zM8.457 10.6c2.868 0 5.194-2.377 5.194-5.308S11.325 0 8.457 0 3.262 2.377 3.262 5.292 5.589 10.6 8.457 10.6zm0-9.216c2.103 0 3.824 1.758 3.824 3.908 0 2.149-1.721 3.908-3.824 3.908-2.104 0-3.824-1.759-3.824-3.908 0-2.15 1.72-3.908 3.824-3.908z"/></svg>