<svg xmlns="http://www.w3.org/2000/svg" width="241" height="178"><path fill-rule="evenodd" fill="#DDD" d="M152 59h-1l-30-30V1h30l29 29v29h-28zm-1 1l29 29v29h-29l-30-30V60h30zm29 0v27l-27-27h27zm29-1h-28V31l28 28zm3 0h-1l-30-30V1h30l29 29v29h-28zM31 119l29 29v29H31L1 147v-28h30zm61-1h-1L61 88V60h30l29 29v29H92zm-1 1l29 29v29H91l-30-30v-28h30zm89 0v29l30 30h31v-31l-28-28h28V88l-28-28h28V29L212 0h-32v28L152 0h-32v30l29 29h-29v28L92 59H60v30l29 29H60v28l-28-28H0v30l30 30h31v-29l29 29h31v-31l-28-28h28V90l29 29h30zm29-1h-28V90l28 28zm3 0h-1l-30-30V60h30l29 29v29h-28zm-1 1l29 29v29h-29l-30-30v-28h30z"/></svg>