<svg xmlns="http://www.w3.org/2000/svg" width="481" height="178"><path fill-rule="evenodd" fill="#DDD" d="M240 31v28h-28l-31-30-31 30h-29V31l30-30h59l30 30zm120 0v28h-28l-31-30-31 30h-29V31l30-30h59l30 30zm90-30l30 30v28h-28l-31-30-31 30h-29V31l30-30h59zM240 90v28h-28l-31-30-31 30h-29V90l30-30h59l30 30zm29.965-30L240.51 88.51 212 60l-1-1h-59l29-29 29.965 29H211l1 1h57.965zM360 90v28h-28l-31-30-31 30h-29V90l30-30h59l30 30zm29.965-30L360.51 88.51 332 60l-1-1h-59l29-29 29.965 29H331l1 1h57.965zM450 60l30 30v28h-28l-31-30-31 30h-29V90l30-30h59zm31 88l-29-29-1-1h-59l29-29 29.965 29H451l1 1h29V89l-29-29-1-1h-59l29-29 29.965 29H451l1 1h29V30L451 0h-60l-30.49 29.51L331 0h-60l-30.49 29.51L211 0h-60l-31 30v30h29.965L120 89v30h31l30-30 31 30h57.965L240 148v30h31l30-30 31 30h59l30-30 31 30h29v-30zm-121 1v28h-28l-31-30-31 30h-29v-28l30-30h59l30 30zm29.965-30l-29.455 28.51L332 119l-1-1h-59l29-29 29.965 29H331l1 1h57.965zM450 119l30 30v28h-28l-31-30-31 30h-29v-28l30-30h59z"/><path fill-rule="evenodd" fill="#DDD" d="M91 0l30 30v30H92L61 30 31 60H0V30L31 0h60zm-1 1l30 30v28H92L61 29 30 59H1V31L31 1h59z"/></svg>