<svg xmlns="http://www.w3.org/2000/svg" width="361" height="178"><path fill-rule="evenodd" fill="#DDD" d="M120 31v28H92L61 29 30 59H1V31L31 1h59l30 30zm120 0v28h-28l-31-30-31 30h-29V31l30-30h59l30 30zm90-30l30 30v28h-28l-31-30-31 30h-29V31l30-30h59zM120 90v28H92L61 88l-31 30H1V90l30-30h59l30 30zm29.965-30L120.51 88.51 92 60l-1-1H32l29-29 29.965 29H91l1 1h57.965zM240 90v28h-28l-31-30-31 30h-29V90l30-30h59l30 30zm29.965-30L240.51 88.51 212 60l-1-1h-59l29-29 29.965 29H211l1 1h57.965zM330 60l30 30v28h-28l-31-30-31 30h-29V90l30-30h59zM90 119l30 30v28H92l-31-30-31 30H1v-28l30-30h59zm271 29l-29-29-1-1h-59l29-29 29.965 29H331l1 1h29V89l-29-29-1-1h-59l29-29 29.965 29H331l1 1h29V30L331 0h-60l-30.49 29.51L211 0h-60l-30.49 29.51L91 0H31L0 30v30h29.965L0 89v30h29.965L0 148v30h31l30-30 31 30h29v-30l-29-29-1-1H32l29-29 29.965 29H91l1 1h59l30-30 31 30h57.965L240 148v30h31l30-30 31 30h29v-30zm-31-29l30 30v28h-28l-31-30-31 30h-29v-28l30-30h59z"/></svg>