<svg xmlns="http://www.w3.org/2000/svg" width="1032" height="562"><path fill-rule="evenodd" fill="#DDD" d="M449.875.125v26.5h26.5V.125h26.25v26.5h26.75V.125h26.25v26.5h26.5V.125h26.5v52.75h-185.25V.125h26.5zm-1.25 1v25.5l1 1h26.5c.5-.25 1-.5 1.25-.75V1.125h24.25v25.5l1 1h26.75l1-1v-25.5h24.25v25.75l.75.75h27c.25-.25.75-.75 1-1.25V1.125h24v50.5h-182.75v-50.5h24zm-412.5 78.25l161.5 161-33 33c1.75.75 3.5 1.5 5.5 1.75 11.25 2.75 27.75 19.25 30.75 30.75.25 1.5 1.25 3 1.75 4.5 15-15.25 22.25-20.5 22.25-33.25 0-6.5-2.5-13.5-8.75-20l22.75-22.75c-.25-.5-1-1-1.5-1-14-4.25-33-19.75-41-35-1.25-2.5-2.75-5-3.75-7.5-.75-1.75-1.75-4-2.25-5.75-.5-2.25-1.5-4.5-2-6.75-.75-3-1.5-6.25-1.75-9.5-.25-2-.5-5.5-.5-6v-7.5c.5-4.5 1-10.25 2-14.5.75-2.75 1.75-5.75 2.5-8.5 4-14.5 20.75-36 37.25-43.5 2.25-1 4.5-2.25 6.75-3.25 2.5-1.25 5.5-2.25 8.25-3 3-.75 6.5-1.75 9.75-2.25 3-.5 8.75-1 9.5-1h43.5v52.75l-26.25 26.75c2 .25 4 .5 6 .5 1.75.25 3.75.75 5.75 1 12.75 1.5 33 17.75 37.25 32.25.75 2.5 2 5.25 2.5 8 .5 2 1.25 6 1.25 6.75v5h26.75v-83.5c-.25-.75-.75-2-.75-2.75-2-12.5-17-21.5-25.75-20.5v-26.25h367.25v26.25c-1.25.25-2.75.25-4 .25-7.75 0-20.5 10.75-21.75 19.25 0 1.25-.75 3.25-.75 4v83.25h26.75v-5c.5-2.5 1-5.25 1.25-7.75 1.75-11.5 15.5-30.5 29.5-35.75 1.75-.5 3.75-1.5 5.75-2.25 2.5-.75 5.5-1.5 8.25-2 2.25-.5 5.25-.5 8-.75l-26.25-26.75v-52.75h43.25c49.75 4 76.25 42.5 76.25 79.75 0 27.25-15.25 61.25-52.75 75l22.75 23c-6.25 5.5-8.75 13.75-8.75 19.75 0 13.25 7 18.25 22.25 33.5l1.5-4.5c3.5-12.75 20.5-27.75 29-30 1.5-.25 3.25-1.25 5-1.75.5-.25 2-.25 2.5-.75l-33-33 161.5-161h36l-161 161c16 16.25 32.25 33 49 49 2.5 2.5 5.5 3 8 3 7.75 0 13-6.5 13-13 0-5.25-2.75-7.75-8-14-5-6-7.5-16.5-7.5-23.25 0-8.75 3.5-19.75 11.75-28.25l18.75 18.75c-2.5 2.75-4 6.25-4 9.25 0 2.75 1.5 7.25 4 9.75l-.5.5c8.5 9 11.5 18.75 11.5 28.25 0 21.25-16.75 38-38 38-8.5 0-17.5-2.5-26-9.75-2.75-2.25-5.25-4.5-7.5-6.25-3.5-2.5-10.25-4-14.25-4-15 0-26.75 11.75-26.75 26.5 0 4.25 0 8.75 3 12.75 8.75 11.25 22.5 23 33.25 34l-48.75 48.25h-43v-26.5h34.25l20.25-20.75c-19.75-20-40-40-59.75-60-2.5-2.5-4.5-5.5-6-8.25-3-5.75-7.25-16.25-7.25-23v-8.75c.5-4 1.25-8 2.5-12l-22.25-22h-87.5v173c14 14 30 29.25 43 43.75 3.5 3.75 8.25 12.5 8.25 17.75 0 9.5-7.25 22.75-20.75 25.25-1 0-2.75.75-3.5.75h-98c-16.75 16.5-34 33.25-50.5 50.25-.5.5-1 1.75-2 2.75-1.5 1.75-3.25 3.5-5 4.75-5.5 3.75-10.25 5-15.5 5-9.25 0-20.5-5-25-17.75-.5-1.75-1.25-5.25-1.25-5.75v-39.25h-174c-3-.5-6.25-1.25-9.5-1.75-11.75-2-29.5-15-35-28.75-.25-1-1-2.25-1.5-3.5-.75-2-1.5-4.5-2-6.5-.5-2.5-1.25-7.5-1.25-8v-8.5c.5-3.25 1.25-6.75 1.75-10 2.75-15 20.25-31.75 30.75-34.75 1.75-.5 3.75-1.5 5.75-2 2.25-.5 4.75-1.25 7-1.5 1.75-.25 5-.5 5.75-.5h1.75v26.5c-17.25.5-26.5 13.5-26.5 26.25 0 14.75 12.5 26.75 26.5 26.75 11.75 0 23.5-8.25 26.5-23.5v-210.75h-87.5l-22.25 22c1.75 5.25 2.5 11 2.5 16.25 0 7.75-.5 11-3.75 19.75-1.75 4.75-4 9.75-8.25 14.25-19.75 20.75-40.5 41-61 61.5l20.25 21h34.25v26.5h-43l-48.75-48c10.5-10.75 21.5-21.25 31.75-32.25 2.25-2.25 3.25-6.25 3.75-8.5l.75-3v-6.75c-2.25-15.75-16-23-27-23-6.75 0-14.75 3-20.75 9.75-1.75 2-4.5 3.5-6.5 4.75-6.75 4-13.5 5.5-20.25 5.5-13.25 0-29-6.5-36-25-1-3-2-8.5-2-9v-8c.75-7.75 4-16.75 11.5-24.25l-.5-.5c2.25-3 4-6.5 4-9.5 0-2.5-1.75-7.25-4-9.5l18.5-18.75c8.25 7 12 20.25 12 28.25 0 8.75-4.25 21-12.5 29-.5.25-1 1-1.25 1.75-.75 1-1.75 5.25-1.75 6.5 0 7.25 5.75 13 12.75 13 2.5 0 5-.25 7.75-2.75 16.75-15.75 33-32.5 49.5-49l-161-161.25h36zm73.25.25l58.25 57.75-18 18.25-76.25-76h36zm849.25 0l-76 76-18.25-18 58.25-58h36zm-923.25 1c.75 0 1 0 1.5.5 49.5 49.25 104.5 104.5 159.25 159.25l-32.5 33c.25 1.5 2.25 1.5 3 1.75 3.75 1 8 3 12 5.25 4.25 2.5 10.25 7.5 14 12.75 1 1 2 2.5 2.75 4 1.75 2.75 3.5 6.25 4.5 9.25.5 1 .75 2.75 1.5 4.25 0 .25.5.75 1.25.75 1 0 14.75-13.5 19-19.75 1-1.5 1.75-3 2.25-4.5 1-2.5 1.5-5 2-7.5v-5.5c-.75-5.5-3-11.5-8.25-17 5.5-5.5 22.25-21.75 22.25-23 0-.75-.25-1-.75-1.25-12-4.5-26.5-13-36.75-27.25-3.75-5.5-7.5-11.5-9.5-17-1.5-4-3.25-9.25-4-13-.5-3.5-1.5-10-1.5-10.5v-12c.5-4.25 1.25-8.5 2-12.75 3-16.5 18.25-40 38.5-50.25 3-1.5 6-3 9-4.25 2.75-1.25 6.25-2.25 9.25-3 .5 0 11-2.25 14-2.25h44.5v50.75l-26.5 27.5c1.5 2.5 3.5 1.25 5.75 1.5 1.25 0 2.75.25 4 .5 2 .25 4 1 6.5 1.5 10 2.25 26.25 14.5 31 26.25.5 1.5 1.5 3 2 4.5 1.5 3.5 2.5 7.5 3 11.25.25 2.25.75 5.25.75 8l1 1h27c.25-.25.75-.75 1-1.25v-81.75c-.25-1-.75-2.5-.75-3.75-.5-8-12.5-20.75-21-21.5-1.75 0-3.25-.25-4.75-.5v-24h364.75v24c-15.75.25-26.5 15.25-26.5 25.75v81.5c.25.5.5 1 1 1.5h27c1.5-.75.75-2.75 1-3.25-.25-3.75.75-8 1.75-11.75.25-1.25 1-2.75 1.25-4 4-15 23.25-30 33.75-32 2-.25 4.25-1.25 6.5-1.5 2.5-.5 5.75-.5 8.5-.75.5 0 1.25-.5 1.25-1.25 0-1.25-19-19-26.5-27v-51.25h44.25c5.5.75 10.75 1.25 16 2.75 40 12 57 46.25 57 75.75 0 7.25 0 8.25-2 17.5-.75 4-2.25 8.25-4 12.5-3.25 8.5-8.75 17-17 25.5-7.25 7.5-16 12.5-23.25 16-.5.25-6.25 2-6.25 3.5 0 1.25 17.75 18.5 22.25 23-6.25 6.25-8.25 13.25-8.25 20 0 3.25.25 6.25 1.75 10 .75 2 2.5 5.5 4.75 8 5.25 5.5 16 16.25 16.75 16.25 1.25 0 4-9 4.5-9.75 3.75-9.25 15.75-20.75 24.75-24 2.5-1 5.75-2 8.5-3 .25 0 1.25-.75 1.25-1.25l-32.5-33c54.5-54.5 109-109 160-159.75h33.25l-159.25 159.75v.75c16.5 16.5 32.75 33 49.5 49.25 2.25 2.25 5.75 3 8.5 3 6 0 12.25-3.5 14-11.5v-4.75c-.75-3.25-3.25-6.75-6.5-10.25-1.75-2-3.5-4.75-4.75-7.25-1.5-2.5-4-10.75-4-14.25v-6.5c.75-7.5 3.5-16.25 10.5-23.5l17.25 17.25c-2.25 2.75-3.5 6.25-3.5 9.5 0 .5.25 3.75 1 5.5.5 1.25 1.5 2.25 2.25 3.75.25 0 0 .75.25 1.25 3.75 4.5 6.5 8.5 8.25 12.5 2.25 4.5 3.25 10.5 3.25 15.25 0 20.5-16.5 37-37 37-3.5 0-7.75-1-10.75-1.75-2.75-.75-6-2-8.75-3.75-1.5-.75-3.5-2-4.75-3.25-8.5-8.5-15.75-11.25-23.5-11.25-15.5 0-28 12-28 27.5 0 4.25.75 10.5 4 14.5 9.75 11.25 21.25 21.5 32 32.25l-47.5 47h-41.75v-24h33.5c5.5-4.75 21-21 21-22.25s-9.5-10-10.5-11c-16.25-16.25-33-32.75-49-49-1.75-1.75-3-4-4.5-5.75-4.75-6-9-19.75-9-27v-5.5c.25-2 .5-4.25.75-6.5.5-2.25 1.75-6.5 1.75-7 0-1.5-16-16.75-20.25-21-.75-.75-1.75-2-2.5-2h-88.25c-.25.25-1 .5-1 1.25v172.5c14 15 30 29.25 43.25 44.5 4.5 5 8 12 8 17.25 0 14.5-12.25 25-25.75 25h-95.75c-16.75 16.5-34 33.25-50.75 50.5-.75.75-1.25 2-2.25 3-1.25 1.5-3.25 3.25-4.5 4.25-4 3-10.25 5-14.75 5-14 0-25.5-12.25-25.5-24v-38l-.75-1h-175.75c-2-.25-4.5-.75-6.5-1.25-1.5-.25-3-1-4.5-1.25-11.25-2.25-29.25-18.75-32.5-30.75-.25-1.75-1-3-1.5-4.5-.25-1.5-.75-3-1-4.5-.5-2.25-.75-6.25-.75-6.75v-5.25c.25-2.25.75-4.5.75-6.75 1-12.5 15.25-33.25 30.5-38.25 1-.25 2.25-1 3.25-1.25 1.75-.5 4.25-1.25 6.25-1.75 2-.25 6.25-1 7-1h2.75v24c-17.75 1.25-26.25 15-26.25 27.5 0 15.5 12.75 27.75 27.5 27.75 12.5 0 26.25-9 27.75-26v-209.25c-.25 0-.5-.5-1-1h-88.5c-5.75 5-22.5 21.5-22.5 23 0 .5 1 4 1.25 6 .75 3.25 1.25 9.75 1.25 10.25 0 5.75-1.75 14-3.75 19.25-1.5 4-4 8.75-7.5 13.25-2.75 3.5-6.25 7-9.75 10.5-2.75 2.5-6 5.75-8.75 8.75-2.25 2-5 4.75-7.25 7.25-9.5 9.25-36 35-36 36.5 0 .75 20.25 22.25 20.75 22.25h33.75v24h-41.75l-47.5-47c10.5-10.5 21.25-20.75 31.25-31.5 1.25-1.25 2-3.25 2.5-4.75 1.5-3.5 2.25-7 2.25-10.5 0-16-13.5-27.5-28-27.5-7.25 0-13.75 2.25-21.25 9.5-8.25 7.75-18.25 10.5-26.5 10.5-13 0-29.5-7.25-35.25-25.25-1-3-1.75-8.5-1.75-9v-5.75c.75-5.25 2-11.75 5.25-16.75 1.5-2.5 3.75-5.25 6-8 .25-.25.25-.75.25-1.25 2.5-2.75 3.5-6.5 3.5-9.25 0-3-1-6.5-3.5-9.5l17-17.25c8 8.5 10.75 17.75 10.75 26.75 0 8.25-2 16.75-9 24.75-4.75 5.25-6.25 8-6.25 12.5 0 7.75 6 14 13.5 14 2.75 0 5.5-.25 7.75-2.25 16.75-15 33.75-33.5 50.5-50 .25-.25.25-.5.25-.75L2.875 80.625h32.5zm73.75.25l57 56.5-16.5 16.75-73.5-73.25h33zm846.75 0l-73.5 73.25-16.5-16.5 57-56.75h33zm-675.75 25v16.5l-31.5 31.25c-5-2-10.25-13.75-10.25-18v-6c.5-2 1-4.5 1.5-6.5 2-8 13.5-17.25 20.75-17.75 3.5-.25 10.75-.5 11.25-.5 2.25 0 7.5-.25 8.25 1zm366.75-1l.75.75v279.5c-.25.25-.5.75-1 .75-.75 0-53.5-53.25-80.25-79.75-5.25-5.25-10.75-10.5-15.75-15.75-7.75-8-14-11.75-21.5-11.75-10.25 0-22.75 6.75-25.25 21.5 0 .5-.25 1.75-.25 2.5l-.25 171h-125.5c-.25-.25-.5-.25-.5-1 0-.5 2-4 2.75-6 1.75-4 2.75-8 3.5-12l.75-4.5v-344.5l.75-.75h261.75zm125.5.75c14.75 4.25 21.25 15.75 21.25 26.75 0 6.75-2.75 16-10.5 21.25l-31.25-31.25v-16.5c.25-1.25 6.5-1 8-1 4 0 8.75-.25 12.5.75zm-126 .25v278.75c-32-32-64.25-64.5-96.5-96.5-8-8-13.25-10.5-20.75-10.5-9 0-19.75 4-25 17.25-.75 1.75-1.5 5.75-1.5 6.5v171.25h-124c4.25-8.25 6.5-16.5 7-24.75v-342h260.75zm-367.5.25v16l-30 30.5c-7-5.25-9.5-14.5-9.5-20.25 0-11.5 7.75-24.75 24.25-26.25h15.25zm489.25 0c16.25 1.5 24.5 14.75 24.5 26.25 0 5.75-2.75 15-9.25 20.25l-30.25-30.5v-16h15zm-553.25 39c.75 2.25 1.75 4.75 2.5 7.25 6 17.25 27.25 30.5 39.75 31.5 1 0 3.5.75 4.25.75h19c15.5.5 26.25 14.5 26.25 26.5 0 .5 0 1.25-.5 2h-44.25c-32.5-3.5-50.25-29.25-50.25-54 0-4 .75-10.25 2-14h1.25zm603.25 0c2.25 5.75 2 8.5 2 13.75 0 20-10.25 42.25-38 51.75-2.5.75-8.75 2.5-12.25 2.5h-44c-.5-.75-.5-1.5-.5-2.25 0-15 14.5-26.25 26-26.25h19.25c2-.25 4-.75 5.75-1 11.5-1.5 30-13.25 36.25-27.5.5-1.5 1.75-3.5 2.25-5 .5-2 1.5-4 2-6h1.25zm-601.5 8.25c4.75 14.75 26 30 38.5 31.25 2.5.25 7.25 1.25 8 1.25h18.75c14.25 1.5 23.75 14.75 23.75 25.25v1h-41.5l-6-.75c-2.25-.25-4.75-1-7-1.5-11.25-2.25-28.5-15.5-33.5-28.5-.25-1-1-2.25-1.5-3.5-1-2.5-1.75-5.25-2.25-7.75-.5-2.25-1-6.75-1-7.25v-7.5c.5-3 .75-6 1.5-9 .5 2.25 1.5 4.5 2.25 7zm602.5 5.75c0 21.25-14 46.25-43.75 52-2.5.5-7 1-7.75 1h-41.25v-1c.25-1 .25-2 .25-3 .75-10.25 12.5-21 20.25-21.75 1 0 2.25-.5 3-.5h19.25c3-.25 6-.75 9-1.5 7.5-1.75 15.5-5.25 23.25-12 9.5-8.5 13.75-17.25 16.25-26 .5 3.25 1.5 8.75 1.5 12.75zm-741.5 36l-18 18-18.25-18 18-18 18.25 18zm913 0l-18 18-18.25-18 18-18 18.25 18zm-914.5 0l-16.5 16.5-16.5-16.5 16.25-16.5 16.75 16.5zm912.75-.25l-16.5 16.75-16.5-16.5 16.5-16.5 16.5 16.25zm-384.25 79.75l-25 10c-10.75-24.25-32.25-33.5-50-33.5-29.5 0-53.5 23.5-53.5 53 0 7.75.5 10.75 3.75 19.75l-24.25 9.75c-2.5-5-6-18.75-6-25.75v-7c4.25-51.5 43.75-76 80.25-76 26.75 0 58.75 13.25 74.75 49.75zm-1.5-.75l-23 9.25c-11-24.5-33-33-50.75-33-30.25 0-54.5 24.5-54.5 54.25 0 5.5 1.5 14 3.5 18.75l-22.25 9c-1.75-2.25-5.25-17-5.25-22v-11.5c5.25-48.75 43.5-72.75 79-72.75 26 0 57.75 13.5 73.25 48zm-298.25 21.25c0 12-4.25 25.75-15 37.5l8 8h34.5v26.25h-44l-35.75-35c8.25-9.75 23.75-20.75 24.5-30.25 0-1 .5-2 .75-3v-7c-1-5-3-10.5-7.75-15.5l19-19c11.5 11.75 15.75 26 15.75 38zm457-19c-6.25 6.75-7.75 12.5-7.75 19 0 14.75 8.25 19.25 25.25 36.75l-35.75 35h-44v-26.25h34.5l8-8c-9.25-9.75-13-19.5-14.5-29.25-.25-1.5-.5-4.25-.5-4.75v-6.75c.75-11.25 4.75-23.75 15.75-34.75l19 19zm-458.25 19c0 23.5-14.75 36.25-14.75 37.5 0 .5 7.75 9 8.5 9h33.75v24.25h-42.25l-34.75-34c16.25-16.75 25-22.5 25-36.75 0-6.5-2.25-12.5-7.5-18.75l17.5-17.75c11.25 12.75 14.5 24 14.5 36.5zm456.75-19c-5.5 6-7.5 12.75-7.5 19 0 14.25 8.5 20 25 36.75-11.25 11-34 34-34.75 34h-42.5v-24.25h33.75c3-2.75 8.75-8.5 8.75-9 0-.75-5-6-6.75-9-5.25-8.5-8.25-19.25-8.25-28.25 0-12 4.25-25.25 14.75-36.75l17.5 17.5zm-61.75 196.5c0 .25-.25.75-.5 1h-105l-64 62.75c-.25 0-.5-.25-.75-.5v-232c.25-.25.75-.5 1-.5l169.25 169.25zm-1 0h-105l-63.25 62.5v-230.75l168.25 168.25zm52-43c.5 1.5 2.75 9.25 2.75 12.5v4h-26.25c0-1.75-.5-3.75-.75-5.5-1-8.75-12.25-19.75-20.75-20.5-1.5 0-3.25-.25-5-.25v-26.5h.75c18 0 41.75 12.25 49.25 36.25zm-46.25-35c2.5.25 5 .75 7.25 1 12.25 1.5 31.75 16 36.5 30.5.75 2 1.5 4.25 2.25 6.5.5 2 1 4 1.25 6 .25 1.5.75 4.75.75 5.5v1h-24.25c-.25-2.75-.75-5.75-1.75-8.25-.5-1.5-1.25-3.5-2.25-4.75-4-7.25-12-12-18-13-1.5-.25-4.5-.25-4.5-.75v-23.75h2.75z"/></svg>