<svg xmlns="http://www.w3.org/2000/svg" width="361" height="119"><path fill-rule="evenodd" fill="#DDD" d="M31 1l29 29v29H31L1 29V1h30zm58 58H61V31l28 28zm3 0h-1L61 29V1h30l29 29v29H92zm-1 1l29 29v29H91L61 88V60h30zm29 0v27L93 60h27zm29-1h-28V31l28 28zm3 0h-1l-30-30V1h30l29 29v29h-28zm-1 1l29 29v29h-29l-30-30V60h30zm29 0v27l-27-27h27zm29-1h-28V31l28 28zm3 0h-1l-30-30V1h30l29 29v29h-28zm-1 1l29 29v29h-29l-30-30V60h30zm29 0v27l-27-27h27zm29-1h-28V31l28 28zm3 0h-1l-30-30V1h30l29 29v29h-28zm-1 1l29 29v29h-29l-30-30V60h30zm30 30l29 29h31V88l-28-28h28V29L332 0h-32v28L272 0h-32v28L212 0h-32v28L152 0h-32v28L92 0H60v28L32 0H0v30l30 30h30v29l30 30h31V90l29 29h31V90l29 29h31V90l29 29h31V90zm-1-30v27l-27-27h27zm29-1h-28V31l28 28zm3 0h-1l-30-30V1h30l29 29v29h-28zm-1 1l29 29v29h-29l-30-30V60h30z"/></svg>