<svg xmlns="http://www.w3.org/2000/svg" width="361" height="178"><path fill-rule="evenodd" fill="#DDD" d="M31 1l29 29v29H31L1 29V1h30zm58 58H61V31l28 28zm3 0h-1L61 29V1h30l29 29v29H92zm-1 1l29 29v29H91L61 88V60h30zm29 0v27L93 60h27zm29 58h-28V90l28 28zm3 0h-1l-30-30V60h30l29 29v29h-28zm-1 1l29 29v29h-29l-30-30v-28h30zm29 0v27l-27-27h27zm29-1h-28V90l28 28zm3 0h-1l-30-30V60h30l29 29v29h-28zm-1 1l29 29v29h-29l-30-30v-28h30zm29 0v27l-27-27h27zm29-1h-28V90l28 28zm3 0h-1l-30-30V60h30l29 29v29h-28zm-1 1l29 29v29h-29l-30-30v-28h30zm29 0v27l-27-27h27zm32-1h-31V88l-29-29h-32v28l-28-28h-32v28l-28-28h-31V29L92 0H60v27.999L32 0H0v30l30 30h30v29l30 30h30v29l30 30h31v-29l29 29h31v-29l29 29h31v-29l29 29h31v-31l-29-29zm-1 1l29 29v29h-29l-30-30v-28h30z"/></svg>