<svg xmlns="http://www.w3.org/2000/svg" width="361" height="178"><path fill-rule="evenodd" fill="#DDD" d="M32 59h-1L1 29V1h30l29 29v29H32zm28 1v27L33 60h27zm29-1H61V31l28 28zm3 0h-1L61 29V1h30l29 29v29H92zm28 1v27L93 60h27zm29-1h-28V31l28 28zm3 0h-1l-30-30V1h30l29 29v29h-28zm28 1v27l-27-27h27zm29-1h-28V31l28 28zm3 0h-1l-30-30V1h30l29 29v29h-28zm28 1v27l-27-27h27zM32 118h-1L1 88V60h30l29 29v29H32zm-1 1l29 29v29H31L1 147v-28h30zm29 0v27l-27-27h27zm29-1H61V90l28 28zm3 0h-1L61 88V60h30l29 29v29H92zm-1 1l29 29v29H91l-30-30v-28h30zm29 0v27l-27-27h27zm29-1h-28V90l28 28zm3 0h-1l-30-30V60h30l29 29v29h-28zm-1 1l29 29v29h-29l-30-30v-28h30zm29 0v27l-27-27h27zm29-1h-28V90l28 28zm3 0h-1l-30-30V60h30l29 29v29h-28zm-1 1l29 29v29h-29l-30-30v-28h30zm29 0v27l-27-27h27zm29-1h-28V90l28 28zm3 0h-1l-30-30V60h30l29 29v29h-28zm-1 1l29 29v29h-29l-30-30v-28h30zm29 0v27l-27-27h27zm32-1h-31V88l-29-29h-31V29L212 0h-32v28L152 0h-32v28L92 0H60v28L32 0H0v30l29 29H0v30l29 29H0v30l30 30h31v-29l29 29h31v-29l29 29h31v-29l29 29h31v-29l29 29h31v-29l29 29h31v-31l-29-29zm-1 1l29 29v29h-29l-30-30v-28h30z"/></svg>