<svg xmlns="http://www.w3.org/2000/svg" width="301" height="355"><path fill-rule="evenodd" fill="#CDCDCD" d="M32 59h-1L1 29V1h30l29 29v29H32zm28 1v27L33 60h27zm29-1H61V31l28 28zm3 0h-1L61 29V1h30l29 29v29H92zm28 1v27L93 60h27zm29-1h-28V31l28 28zm3 0h-1l-30-30V1h30l29 29v29h-28zm28 1v27l-27-27h27zm29-1h-28V31l28 28zm3 0h-1l-30-30V1h30l29 29v29h-28zm28 1v27l-27-27h27zm31 0l29 29v29h-29l-30-30V60h30zM32 118h-1L1 88V60h30l29 29v29H32zm28 1v27l-27-27h27zm29-1H61V90l28 28zm3 0h-1L61 88V60h30l29 29v29H92zm28 1v27l-27-27h27zm29-1h-28V90l28 28zm3 0h-1l-30-30V60h30l29 29v29h-28zm28 1v27l-27-27h27zm29-1h-28V90l28 28zm3 0h-1l-30-30V60h30l29 29v29h-28zm-1 1l29 29v29h-29l-30-30v-28h30zM32 177h-1L1 147v-28h30l29 29v29H32zm28 1v27l-27-27h27zm29-1H61v-28l28 28zm3 0h-1l-30-30v-28h30l29 29v29H92zm28 1v27l-27-27h27zm29-1h-28v-28l28 28zm3 0h-1l-30-30v-28h30l29 29v29h-28zm-1 1l29 29v29h-29l-30-30v-28h30zM32 236h-1L1 206v-28h30l29 29v29H32zm28 1v27l-27-27h27zm29-1H61v-28l28 28zm3 0h-1l-30-30v-28h30l29 29v29H92zm-1 1l29 29v29H91l-30-30v-28h30zm-62 58H0v30l30 30h31v-31l-28-28h28v-29l29 29h31v-31l-28-28h28v-29l29 29h31v-31l-28-28h28v-29l29 29h31v-31l-28-28h28V90l29 29h31V88l-29-29h-31V29L212 0h-32v28L152 0h-32v28L92 0H60v28L32 0H0v30l29 29H0v30l29 29H0v30l29 29H0v30l29 29H0v30l29 29zm3 0h-1L1 265v-28h30l29 29v29H32zm-1 1l29 29v29H31L1 324v-28h30z"/></svg>