<svg xmlns="http://www.w3.org/2000/svg" width="361" height="237"><path fill-rule="evenodd" fill="#DDD" d="M272 59h-1l-30-30V1h30l29 29v29h-28zm28 1v27l-27-27h27zm29-1h-28V31l28 28zm3 0h-1l-30-30V1h30l29 29v29h-28zM31 178l29 29v29H31L1 206v-28h30zm60 0l29 29v29H91l-30-30v-28h30zm60 0l29 29v29h-29l-30-30v-28h30zm62 0h27v27l-27-27zm-3 0h1l29 29v29h-29l-30-30v-28h29zm1-59l29 29v29h-29l-30-30v-28h30zm62 59h27v27l-27-27zm-3 0h1l29 29v29h-29l-30-30v-28h29zm-29-29l28 28h-28v-28zm31-31h-1l-30-30V60h30l29 29v29h-28zm-1 1l29 29v29h-29l-30-30v-28h30zm62 59h28v-31l-28-28h28V88l-28-28h28V29L332 0h-32v28L272 0h-32v30l29 29h-29v30l29 29h-29v28l-28-28h-32v30l29 29h-29v28l-28-28h-32v28l-28-28H60v28l-28-28H0v30l30 30h31v-29l29 29h31v-29l29 29h31v-29l29 29h31v-29l29 29h31v-29l29 29h31v-31l-28-28zm-3 0h1l29 29v29h-29l-30-30v-28h29zm-29-29l28 28h-28v-28zm-1-30v27l-27-27h27zm29-1h-28V90l28 28zm3 0h-1l-30-30V60h30l29 29v29h-28zm-1 1l29 29v29h-29l-30-30v-28h30z"/></svg>