<svg xmlns="http://www.w3.org/2000/svg" width="361" height="237"><path fill-rule="evenodd" fill="#414141" d="M120 31v28H92L61 29 30 59H1V31L31 1h59l30 30zm120 0v28h-28l-31-30-31 30h-29V31l30-30h59l30 30zm90-30l30 30v28h-28l-31-30-31 30h-29V31l30-30h59zM120 90v28H92L61 88l-31 30H1V90l30-30h59l30 30zM90.965 59H32l29-29 29.965 29zm59 1L120.51 88.51 92 60h57.965zM240 90v28h-28l-31-30-31 30h-29V90l30-30h59l30 30zm-29.035-31H152l29-29 29.965 29zm59 1L240.51 88.51 212 60h57.965zM330 60l30 30v28h-28l-31-30-31 30h-29V90l30-30h59zm-90 89v28h-28l-31-30-31 30h-29v-28l30-30h59l30 30zm-29.035-31H152l29-29 29.965 29zm59 1l-29.455 28.51L212 119h57.965zM330 119l30 30v28h-28l-31-30-31 30h-29v-28l30-30h59zm-60.035 59l-29.455 28.509L240 208v29h31l30-30 31 30h29v-30l-29-29-1-1h-59l29-29 29.965 29H331l1 1h29v-30l-29-29-1-1h-59l29-29 29.965 29H331l1 1h29V89l-29-29-1-1h-59l29-29 29.965 29H331l1 1h29V30L331 0h-60l-30.49 29.51L211 0h-60l-30.49 29.51L91 0H31L0 30v30h29.965L0 89v30h31l30-30 31 30h57.965L120 148v30h31l1-1 29-29 29.965 29 1.035 1h57.965zM330 178l30 30v28h-28l-31-30-31 30h-29v-28l30-30h59z"/></svg>