<svg xmlns="http://www.w3.org/2000/svg" width="11" height="14"><path fill-rule="evenodd" opacity=".502" fill="#333" d="M8.386 11.18a22.736 22.736 0 01-2.549 2.542L5.5 14l-.337-.278a22.736 22.736 0 01-2.549-2.542C.879 9.15 0 7.327 0 5.764v-.156C0 2.516 2.467 0 5.5 0S11 2.516 11 5.608v.156c0 1.563-.879 3.386-2.614 5.416zm1.541-5.572c0-2.489-1.986-4.514-4.427-4.514S1.073 3.119 1.073 5.608v.156c0 2.642 3.34 5.842 4.427 6.814 1.087-.972 4.427-4.171 4.427-6.814v-.156zM5.5 8.207c-1.405 0-2.549-1.166-2.549-2.599 0-1.433 1.144-2.599 2.549-2.599s2.549 1.166 2.549 2.599c0 1.433-1.144 2.599-2.549 2.599zm0-4.103c-.814 0-1.476.675-1.476 1.504 0 .83.662 1.505 1.476 1.505s1.476-.675 1.476-1.505c0-.829-.662-1.504-1.476-1.504z"/></svg>