<svg xmlns="http://www.w3.org/2000/svg" width="19" height="20"><path fill-rule="evenodd" fill="#444" d="M15.437 12.969a3.575 3.575 0 00-2.865 1.428l-5.592-2.82a3.452 3.452 0 00-.115-2.309l5.86-3.476a3.575 3.575 0 002.712 1.239C17.402 7.031 19 5.454 19 3.515 19 1.577 17.402 0 15.437 0c-1.964 0-3.562 1.577-3.562 3.515 0 .448.085.877.241 1.271L6.241 8.27a3.577 3.577 0 00-2.679-1.2C1.598 7.07 0 8.647 0 10.586c0 1.938 1.598 3.515 3.562 3.515 1.193 0 2.25-.581 2.897-1.471l5.576 2.812c-.104.329-.16.679-.16 1.042 0 1.939 1.598 3.516 3.562 3.516C17.402 20 19 18.423 19 16.484c0-1.938-1.598-3.515-3.563-3.515zm0-11.797c1.31 0 2.375 1.051 2.375 2.343 0 1.293-1.065 2.344-2.375 2.344-1.309 0-2.375-1.051-2.375-2.344 0-1.292 1.066-2.343 2.375-2.343zM3.562 12.93c-1.309 0-2.375-1.052-2.375-2.344 0-1.292 1.066-2.344 2.375-2.344 1.31 0 2.375 1.052 2.375 2.344 0 1.292-1.065 2.344-2.375 2.344zm11.875 5.898c-1.309 0-2.375-1.052-2.375-2.344 0-1.292 1.066-2.343 2.375-2.343 1.31 0 2.375 1.051 2.375 2.343s-1.065 2.344-2.375 2.344z"/></svg>