<svg xmlns="http://www.w3.org/2000/svg" width="20" height="20"><path fill-rule="evenodd" opacity=".902" fill="#FFE599" d="M11.171 12.987c-1.229-.892-2.326-2.021-3.355-3.459-.498-.716-.825-1.312-1.052-1.912.378-.298.731-.611 1.075-.912.13-.111.26-.228.39-.34.974-.841 1.052-2.013.2-2.98l-1.11-1.261a14.29 14.29 0 01-.378-.438c-.244-.286-.5-.581-.766-.86-.396-.444-.887-.7-1.42-.737C4.223.05 3.693.235 3.229.619L3.22.627 1.638 2.005A3.13 3.13 0 00.559 3.948C.372 5.201.671 6.4.909 7.187c.584 1.93 1.525 3.744 2.974 5.714a20.398 20.398 0 006.45 5.705c.964.531 2.254 1.169 3.73 1.359.09.011.185.021.272.026.997.065 1.859-.234 2.564-.895.005-.009.014-.012.019-.021.243-.254.518-.48.808-.723.198-.162.401-.334.599-.513.458-.411.718-.909.755-1.434.037-.53-.156-1.053-.562-1.509L16.31 12.38c-.39-.46-.88-.726-1.416-.762-.533-.036-1.059.157-1.526.561l-1.461 1.257c-.109-.067-.218-.13-.322-.193-.151-.088-.294-.17-.414-.256zm-4.325-2.799l.004.004c1.102 1.541 2.288 2.762 3.622 3.726.17.123.346.225.514.322.15.087.293.17.413.256.017.009.033.023.05.033a.936.936 0 00.422.135c.359.024.6-.183.678-.251l1.581-1.366c.157-.136.403-.295.676-.277.268.018.477.2.601.354l.008.009 2.218 2.515c.414.466.383.914-.089 1.338-.181.168-.365.319-.563.486-.299.246-.603.505-.892.799-.468.432-.997.617-1.671.573-.065-.005-.134-.009-.199-.018-1.278-.165-2.438-.739-3.305-1.221a19.248 19.248 0 01-6.074-5.378c-1.367-1.865-2.253-3.567-2.796-5.37-.336-1.1-.43-1.947-.312-2.733.076-.502.3-.907.686-1.24l1.586-1.369c.226-.184.461-.276.683-.26.275.019.487.198.617.346l.012.014c.25.265.486.537.734.828l.386.447 1.11 1.259c.431.489.403.911-.089 1.336-.135.116-.265.233-.399.344-.39.346-.761.666-1.163.976-.009.008-.018.012-.023.02-.399.345-.353.711-.291.962l.01.039c.26.761.649 1.487 1.255 2.362z"/></svg>