<svg xmlns="http://www.w3.org/2000/svg" width="20" height="20"><path fill-rule="evenodd" opacity=".502" fill="#333" d="M11.171 12.987c-1.229-.892-2.326-2.022-3.355-3.459-.498-.716-.825-1.312-1.052-1.912.378-.298.731-.611 1.075-.912.13-.112.26-.228.39-.34.974-.841 1.052-2.013.2-2.981l-1.11-1.26a15.594 15.594 0 01-.378-.438c-.244-.285-.5-.581-.766-.86-.396-.444-.887-.7-1.42-.737C4.223.05 3.693.235 3.229.619L3.22.627 1.638 2.005A3.13 3.13 0 00.559 3.948C.372 5.201.671 6.4.909 7.187c.584 1.93 1.525 3.744 2.974 5.714a20.414 20.414 0 006.45 5.706c.964.53 2.254 1.168 3.73 1.358.09.01.185.021.272.026.997.065 1.859-.234 2.564-.895.005-.009.014-.012.019-.021.243-.254.518-.48.808-.723.198-.162.401-.333.599-.513.458-.412.718-.909.755-1.434.037-.53-.156-1.053-.562-1.509L16.31 12.38c-.39-.46-.88-.726-1.416-.762-.533-.036-1.059.157-1.526.56l-1.461 1.259c-.109-.068-.218-.131-.322-.194-.151-.088-.294-.17-.414-.256zm-4.325-2.799l.004.004c1.102 1.541 2.288 2.762 3.622 3.726.17.123.346.225.514.322.15.087.293.17.413.255.017.01.033.024.05.034a.936.936 0 00.422.135c.359.024.6-.183.678-.251l1.581-1.366c.157-.136.403-.296.676-.277.268.018.477.199.601.354l.008.009 2.218 2.515c.414.466.383.914-.089 1.337-.181.169-.365.32-.563.487-.299.246-.603.505-.892.799-.468.432-.997.616-1.671.572a3.337 3.337 0 01-.199-.017c-1.278-.165-2.438-.739-3.305-1.221a19.248 19.248 0 01-6.074-5.378c-1.367-1.865-2.253-3.568-2.796-5.37-.336-1.101-.43-1.948-.312-2.733.076-.502.3-.907.686-1.24l1.586-1.369c.226-.184.461-.276.683-.26.275.019.487.198.617.347l.012.013c.25.265.486.537.734.827.126.148.256.296.386.448l1.11 1.259c.431.489.403.911-.089 1.336-.135.116-.265.232-.399.344-.39.345-.761.666-1.163.976-.009.008-.018.012-.023.02-.399.345-.353.711-.291.962l.01.039c.26.761.649 1.487 1.255 2.362z"/></svg>