<svg xmlns="http://www.w3.org/2000/svg" width="27" height="16"><path fill-rule="evenodd" fill="#FFF" d="M26.702 14.219a2.123 2.123 0 00-.091-.176c-.463-.846-1.348-1.882-2.654-3.112l-.027-.027-.014-.015-.014-.015h-.014c-.593-.572-.968-.956-1.125-1.154-.288-.375-.352-.756-.195-1.141.111-.29.528-.905 1.25-1.844.38-.497.681-.897.903-1.197C26.324 3.38 27.019 2 26.805 1.399l-.082-.14c-.056-.085-.199-.161-.431-.232-.232-.071-.528-.082-.889-.036l-4.002.028a.516.516 0 00-.277.008l-.181.042-.07.035-.055.043a.617.617 0 00-.153.147 1.009 1.009 0 00-.139.246 23.15 23.15 0 01-1.486 3.169 31.476 31.476 0 01-.945 1.513c-.288.427-.529.741-.723.943-.195.202-.37.364-.528.486-.157.122-.278.174-.361.155-.084-.018-.162-.038-.237-.057a.936.936 0 01-.312-.344 1.568 1.568 0 01-.16-.55 6.1 6.1 0 01-.049-.57 12.81 12.81 0 01.007-.676c.01-.291.014-.488.014-.591 0-.357.007-.744.021-1.161l.035-.993c.009-.244.014-.502.014-.774 0-.273-.017-.486-.049-.641a2.199 2.199 0 00-.146-.451.742.742 0 00-.284-.337 1.537 1.537 0 00-.466-.19C14.38.357 13.755.297 12.995.288c-1.722-.02-2.829.094-3.32.337a1.865 1.865 0 00-.528.422c-.167.207-.19.32-.07.338.556.084.949.287 1.181.606l.083.17c.065.12.13.336.195.646s.107.653.125 1.027a11.16 11.16 0 010 1.76c-.046.489-.09.869-.132 1.141a2.276 2.276 0 01-.188.662 2.581 2.581 0 01-.167.31.225.225 0 01-.069.07 1.04 1.04 0 01-.375.071c-.13 0-.287-.065-.472-.197a3.381 3.381 0 01-.577-.543 7.164 7.164 0 01-.674-.964 16.88 16.88 0 01-.778-1.464l-.222-.409a34.544 34.544 0 01-.57-1.147 21.966 21.966 0 01-.639-1.458.938.938 0 00-.333-.451l-.07-.041a.937.937 0 00-.222-.12 1.449 1.449 0 00-.32-.091L1.046.991c-.389 0-.653.089-.792.267l-.055.085a.459.459 0 00-.042.226c0 .103.027.229.083.379a47 47 0 001.813 3.831c.653 1.228 1.221 2.22 1.703 2.97.481.751.972 1.459 1.472 2.125.5.667.832 1.094.993 1.281.163.189.29.33.383.422l.347.339c.222.225.549.495.98.809.43.315.907.624 1.431.931a7.71 7.71 0 001.827.745c.695.192 1.371.27 2.029.233h1.598c.323-.029.569-.132.736-.31l.055-.071a.9.9 0 00.104-.26c.033-.118.049-.247.049-.387-.01-.404.021-.768.09-1.092.069-.323.148-.568.236-.731a1.813 1.813 0 01.536-.62.87.87 0 01.111-.049c.222-.075.484-.002.785.218a4.7 4.7 0 01.847.816c.264.325.582.688.952 1.093.371.403.695.703.973.901l.278.168c.185.113.426.216.722.31.297.094.556.118.778.071l3.557-.056c.352 0 .626-.061.82-.177.194-.117.31-.246.347-.387.038-.141.039-.301.007-.479a1.816 1.816 0 00-.097-.373z"/></svg>