<svg
 xmlns="http://www.w3.org/2000/svg"
 xmlns:xlink="http://www.w3.org/1999/xlink"
 width="753px" height="280px">
<path fill-rule="evenodd"  fill="rgb(221, 221, 221)"
 d="M720.875,0.125 L720.875,178.125 L752.875,178.125 L752.875,229.875 L720.875,229.875 L720.875,279.875 L661.125,279.875 L661.125,229.875 L529.125,229.875 L529.125,169.875 L650.875,0.125 L720.875,0.125 ZM719.875,1.125 L719.875,178.375 L720.625,179.125 L751.875,179.125 L751.875,228.875 L720.625,228.875 L719.875,229.625 L719.875,278.875 L662.125,278.875 L662.125,229.625 L661.375,228.875 L530.125,228.875 L530.125,170.375 L651.625,1.125 L719.875,1.125 ZM661.625,69.875 L661.625,178.875 L584.375,178.875 C584.375,178.625 584.125,178.625 584.125,177.875 C584.125,177.375 592.625,165.375 596.875,159.375 C600.375,154.375 604.125,149.125 607.625,144.125 C610.875,139.625 614.125,134.875 617.125,130.625 C619.375,127.125 622.125,123.125 624.875,119.625 C626.875,116.625 629.125,113.125 631.375,110.375 C639.125,99.125 659.375,69.375 660.875,69.375 C661.375,69.375 661.625,69.625 661.625,69.875 ZM660.875,177.875 L585.375,177.875 L660.875,70.375 L660.875,177.875 Z"/>
<path fill-rule="evenodd"  fill="rgb(221, 221, 221)"
 d="M191.875,0.125 L191.875,178.125 L223.875,178.125 L223.875,229.875 L191.875,229.875 L191.875,279.875 L132.125,279.875 L132.125,229.875 L0.125,229.875 L0.125,169.875 L121.875,0.125 L191.875,0.125 ZM190.875,1.125 L190.875,178.375 L191.625,179.125 L222.875,179.125 L222.875,228.875 L191.625,228.875 L190.875,229.625 L190.875,278.875 L133.125,278.875 L133.125,229.625 L132.375,228.875 L1.125,228.875 L1.125,170.375 L122.625,1.125 L190.875,1.125 ZM132.625,69.875 L132.625,178.875 L55.375,178.875 C55.375,178.625 55.125,178.625 55.125,177.875 C55.125,177.375 63.625,165.375 67.875,159.375 C71.375,154.375 75.125,149.125 78.625,144.125 C81.875,139.625 85.125,134.875 88.125,130.625 C90.375,127.125 93.125,123.125 95.875,119.625 C97.875,116.625 100.125,113.125 102.375,110.375 C110.125,99.125 130.375,69.375 131.875,69.375 C132.375,69.375 132.625,69.625 132.625,69.875 ZM131.875,177.875 L56.375,177.875 L131.875,70.375 L131.875,177.875 Z"/>
<path fill-rule="evenodd"  fill="rgb(221, 221, 221)"
 d="M431.875,0.125 C434.625,0.375 437.375,0.625 439.875,1.125 C442.875,1.875 447.125,3.375 450.625,4.375 C462.875,7.875 480.875,26.375 483.875,38.625 C484.375,40.625 485.375,42.875 485.875,44.875 C486.875,48.125 487.875,54.625 487.875,55.375 L487.875,224.375 C487.625,226.875 487.125,229.375 486.625,231.875 C485.875,234.875 484.375,239.125 483.375,242.625 C479.875,254.875 461.375,272.875 449.375,275.875 C447.375,276.375 444.875,277.375 443.125,277.875 C439.625,278.875 433.125,279.875 432.375,279.875 L319.375,279.875 C317.125,279.625 314.375,279.125 312.125,278.625 C308.875,277.875 304.375,276.375 301.375,275.375 C287.875,270.875 272.125,254.375 267.875,241.375 C267.125,238.875 266.125,236.625 265.625,234.125 C265.125,231.125 264.125,225.125 264.125,224.625 L264.125,55.375 C264.625,52.625 264.875,49.625 265.375,46.875 C266.125,44.125 267.125,41.375 267.875,38.625 C272.875,21.875 293.125,5.875 304.625,3.125 C307.125,2.625 309.625,1.625 312.125,1.125 C314.375,0.625 317.375,0.375 319.875,0.125 L431.875,0.125 ZM429.625,1.125 C432.375,1.375 435.125,1.625 437.875,1.875 C451.625,3.375 472.625,16.125 480.375,33.375 C481.375,35.625 482.625,38.125 483.375,40.375 C484.375,43.375 485.375,46.875 485.875,50.125 C486.125,52.375 486.875,56.625 486.875,57.375 L486.875,222.125 C486.375,226.125 485.875,229.875 485.125,233.625 C484.625,235.625 483.875,237.375 483.375,239.625 C479.125,255.875 457.625,273.375 446.875,275.625 C443.625,276.125 440.625,277.375 437.875,277.875 C435.625,278.125 431.125,278.875 430.375,278.875 L321.375,278.875 C319.125,278.625 316.625,278.125 314.125,277.875 C300.375,276.125 279.875,264.625 271.625,247.125 C270.875,245.125 269.875,243.125 269.125,241.625 C268.375,239.125 267.125,236.375 266.625,233.625 C265.875,230.125 265.125,223.375 265.125,222.875 L265.125,57.125 C265.375,53.875 265.875,50.375 266.375,47.375 C266.625,45.875 267.375,43.875 267.625,42.625 C267.875,41.375 268.625,39.875 269.125,38.375 C273.125,24.375 292.625,6.875 305.875,3.875 C308.625,3.375 311.375,2.375 314.125,1.875 C316.375,1.375 319.375,1.375 321.875,1.125 L429.625,1.125 ZM417.875,51.125 C427.875,51.125 436.875,62.375 436.875,69.375 L436.875,210.375 C436.625,211.375 436.125,212.375 436.125,213.375 C435.125,220.375 425.125,228.875 418.375,228.875 L333.375,228.875 C332.625,228.625 331.375,228.125 330.625,228.125 C322.125,227.125 315.125,215.875 315.125,210.625 L315.125,69.375 C315.375,68.625 315.625,67.375 315.625,66.625 C316.375,59.375 327.125,50.625 333.875,51.125 L417.875,51.125 ZM416.625,52.125 C426.875,52.125 435.875,62.125 435.875,70.625 L435.875,209.125 C435.625,218.875 425.625,227.875 417.125,227.875 L334.625,227.875 C324.875,227.625 316.125,217.625 316.125,209.375 L316.125,70.625 C316.375,69.875 316.375,68.875 316.375,68.375 C317.125,61.625 325.625,53.125 332.375,52.375 C332.875,52.375 334.125,52.375 335.125,52.125 L416.625,52.125 Z"/>
</svg>