<svg
 xmlns="http://www.w3.org/2000/svg"
 xmlns:xlink="http://www.w3.org/1999/xlink"
 width="11px" height="14px">
<path fill-rule="evenodd"  fill="rgb(51, 51, 51)"
 d="M8.386,11.181 C7.129,12.653 5.889,13.679 5.837,13.722 L5.500,14.000 L5.163,13.722 C5.111,13.679 3.871,12.653 2.614,11.181 C0.879,9.150 -0.000,7.328 -0.000,5.764 L-0.000,5.609 C-0.000,2.516 2.467,-0.000 5.500,-0.000 C8.533,-0.000 11.000,2.516 11.000,5.609 L11.000,5.764 C11.000,7.328 10.121,9.150 8.386,11.181 ZM9.927,5.609 C9.927,3.119 7.941,1.094 5.500,1.094 C3.059,1.094 1.073,3.119 1.073,5.609 L1.073,5.764 C1.073,8.407 4.413,11.606 5.500,12.578 C6.587,11.606 9.927,8.407 9.927,5.764 L9.927,5.609 ZM5.500,8.208 C4.095,8.208 2.951,7.042 2.951,5.609 C2.951,4.175 4.095,3.009 5.500,3.009 C6.905,3.009 8.049,4.175 8.049,5.609 C8.049,7.042 6.905,8.208 5.500,8.208 ZM5.500,4.104 C4.686,4.104 4.024,4.779 4.024,5.609 C4.024,6.438 4.686,7.113 5.500,7.113 C6.314,7.113 6.975,6.438 6.975,5.609 C6.975,4.779 6.314,4.104 5.500,4.104 Z"/>
</svg>