<svg
 xmlns="http://www.w3.org/2000/svg"
 xmlns:xlink="http://www.w3.org/1999/xlink"
 width="14px" height="14px">
<path fill-rule="evenodd"  fill="rgb(0, 0, 0)"
 d="M8.105,6.999 L13.773,1.332 C14.078,1.027 14.078,0.532 13.773,0.227 C13.468,-0.078 12.973,-0.078 12.668,0.227 L7.000,5.894 L1.332,0.227 C1.027,-0.078 0.532,-0.078 0.227,0.227 C-0.078,0.532 -0.078,1.027 0.227,1.332 L5.895,6.999 L0.227,12.666 C-0.078,12.971 -0.078,13.466 0.227,13.771 C0.380,13.924 0.580,14.000 0.780,14.000 C0.980,14.000 1.179,13.924 1.332,13.771 L7.000,8.104 L12.668,13.771 C12.820,13.924 13.020,14.000 13.220,14.000 C13.420,14.000 13.620,13.924 13.773,13.771 C14.078,13.466 14.078,12.971 13.773,12.666 L8.105,6.999 Z"/>
</svg>