<svg
 xmlns="http://www.w3.org/2000/svg"
 xmlns:xlink="http://www.w3.org/1999/xlink"
 width="350px" height="373px">
<path fill-rule="evenodd"  fill="rgb(254, 195, 70)"
 d="M349.982,182.212 C349.976,181.946 349.927,181.682 349.838,181.431 C349.815,181.375 349.802,181.317 349.777,181.263 C349.752,181.210 349.762,181.200 349.747,181.170 L286.678,50.124 L286.678,14.497 C290.574,13.180 292.666,8.951 291.351,5.051 C290.861,3.601 289.938,2.336 288.705,1.429 C286.827,0.033 284.392,-0.369 282.166,0.349 L178.136,45.451 C175.589,43.062 172.231,41.729 168.739,41.720 C162.200,41.754 156.558,46.320 155.155,52.713 L63.431,92.072 C59.515,93.336 57.364,97.539 58.627,101.459 C59.107,102.949 60.043,104.250 61.303,105.178 C61.920,105.631 62.604,105.987 63.330,106.232 L63.330,141.918 L0.266,272.966 L0.233,273.060 L0.175,273.227 C0.081,273.478 0.028,273.741 0.018,274.008 C0.018,274.038 -0.000,274.067 -0.000,274.099 L-0.000,276.635 C0.013,286.434 7.945,294.374 17.735,294.386 L114.002,294.386 C123.791,294.374 131.724,286.434 131.737,276.635 L131.737,274.099 C131.737,274.067 131.719,274.041 131.719,274.008 C131.708,273.741 131.655,273.478 131.562,273.227 C131.539,273.171 131.526,273.113 131.501,273.060 C131.476,273.007 131.486,272.996 131.471,272.966 L68.402,141.920 L68.402,106.085 L160.004,66.762 C160.748,67.367 161.553,67.894 162.406,68.334 L162.406,337.143 L121.872,337.143 C120.472,337.143 119.338,338.278 119.338,339.679 L119.338,347.387 L98.937,347.387 C97.538,347.387 96.404,348.523 96.404,349.923 L96.404,357.653 L76.003,357.653 C74.604,357.653 73.470,358.788 73.470,360.188 L73.470,370.464 C73.470,371.865 74.604,373.000 76.003,373.000 L264.009,373.000 C265.409,373.000 266.543,371.865 266.543,370.464 L266.543,360.199 C266.543,358.798 265.409,357.663 264.009,357.663 L243.609,357.663 L243.609,349.923 C243.609,348.523 242.474,347.387 241.075,347.387 L220.675,347.387 L220.675,339.668 C220.675,338.268 219.540,337.132 218.141,337.132 L177.607,337.132 L177.607,67.356 C177.592,67.140 177.550,66.926 177.480,66.722 C179.495,65.093 181.019,62.937 181.884,60.493 C181.967,60.260 182.000,60.014 182.069,59.779 L281.611,16.110 L281.611,50.124 L218.529,181.170 L218.496,181.263 L218.438,181.431 C218.345,181.681 218.292,181.945 218.281,182.212 C218.281,182.242 218.263,182.270 218.263,182.303 L218.263,184.839 C218.276,194.637 226.209,202.578 235.998,202.590 L332.265,202.590 C342.054,202.578 349.987,194.637 350.000,184.839 L350.000,182.303 C350.000,182.270 349.982,182.245 349.982,182.212 ZM114.002,289.315 L17.735,289.315 C10.742,289.307 5.075,283.634 5.067,276.635 L126.670,276.635 C126.661,283.634 120.995,289.307 114.002,289.315 ZM124.344,271.563 L7.393,271.563 L65.868,146.667 L124.344,271.563 ZM66.317,101.437 C65.626,101.661 64.871,101.535 64.290,101.100 C63.232,100.315 63.010,98.820 63.795,97.761 C64.085,97.369 64.489,97.076 64.951,96.921 C154.995,58.087 155.005,58.077 155.005,58.077 C155.252,59.641 155.761,61.152 156.513,62.545 L66.317,101.437 ZM261.476,362.734 L261.476,367.928 L78.537,367.928 L78.537,362.734 L261.476,362.734 ZM238.542,352.459 L238.542,357.663 L101.471,357.663 L101.471,352.459 L238.542,352.459 ZM215.608,342.204 L215.608,347.387 L124.405,347.387 L124.405,342.204 L215.608,342.204 ZM167.473,337.132 L167.473,69.891 L172.540,69.881 L172.540,337.132 L167.473,337.132 ZM177.100,58.807 C175.453,63.520 170.301,66.003 165.592,64.355 C160.883,62.706 158.402,57.549 160.049,52.836 C161.697,48.123 166.849,45.639 171.558,47.288 C175.172,48.554 177.596,51.962 177.607,55.795 C177.611,56.824 177.439,57.836 177.100,58.807 ZM182.601,54.296 C182.430,52.721 181.995,51.186 181.313,49.757 L283.696,5.182 C284.386,4.961 285.141,5.088 285.723,5.520 C286.781,6.303 287.005,7.798 286.222,8.857 C285.931,9.252 285.526,9.546 285.061,9.702 L182.601,54.296 ZM284.144,54.871 L342.620,179.767 L225.669,179.767 L284.144,54.871 ZM332.278,197.518 L236.011,197.518 C229.018,197.510 223.351,191.838 223.343,184.839 L344.945,184.839 C344.937,191.838 339.271,197.510 332.278,197.518 ZM267.000,138.000 L267.000,143.000 L302.000,143.000 L302.000,138.000 L267.000,138.000 ZM63.000,215.000 L63.000,230.000 L48.000,230.000 L48.000,235.000 L63.000,235.000 L63.000,250.000 L68.000,250.000 L68.000,235.000 L83.000,235.000 L83.000,230.000 L68.000,230.000 L68.000,215.000 L63.000,215.000 Z"/>
</svg>