<svg
 xmlns="http://www.w3.org/2000/svg"
 xmlns:xlink="http://www.w3.org/1999/xlink"
 width="1032px" height="562px">
<path fill-rule="evenodd"  opacity="0.302" fill="rgb(238, 238, 238)"
 d="M726.283,212.222 C726.283,197.545 738.185,185.646 752.867,185.646 L766.159,185.646 L767.821,185.646 C791.861,184.882 811.883,168.193 817.653,145.781 C818.746,150.028 819.328,154.481 819.328,159.071 C819.328,188.425 795.524,212.222 766.159,212.222 L726.283,212.222 ZM752.867,122.528 L752.867,105.917 L766.159,105.917 C780.841,105.917 792.743,117.816 792.743,132.493 C792.743,140.678 789.042,147.997 783.222,152.874 L752.867,122.528 ZM529.230,304.141 L697.923,472.741 L592.077,472.741 L575.539,489.271 L565.615,499.188 L529.230,535.553 L529.230,304.141 ZM305.717,212.222 L265.841,212.222 C236.476,212.222 212.672,188.425 212.672,159.071 C212.672,154.481 213.253,150.028 214.347,145.781 C220.117,168.193 240.139,184.882 264.179,185.621 L265.841,185.646 L279.133,185.646 C293.815,185.646 305.717,197.545 305.717,212.222 ZM279.133,122.528 L248.778,152.874 C242.958,147.997 239.257,140.678 239.257,132.493 C239.257,117.816 251.158,105.917 265.841,105.917 L279.133,105.917 L279.133,122.528 ZM502.770,472.741 L378.268,472.741 C382.771,464.960 385.346,455.927 385.346,446.294 L385.346,105.788 L646.654,105.788 L646.654,385.136 L551.814,290.348 C544.838,283.376 538.786,277.694 529.230,277.694 C514.616,277.694 502.770,289.534 502.770,304.141 L502.770,472.741 ZM332.423,499.188 L502.770,499.188 L502.770,535.553 C502.770,550.160 514.616,562.000 529.230,562.000 C538.786,562.000 547.163,556.934 551.814,549.346 L602.000,499.188 L697.923,499.188 C712.538,499.188 724.385,487.348 724.385,472.741 C724.385,467.982 720.043,458.484 711.733,450.178 L673.115,411.582 L673.115,238.798 L761.174,238.798 L782.826,260.444 C776.832,279.108 781.246,300.386 796.066,315.202 L843.710,362.833 L853.389,372.507 L833.539,393.400 L798.807,393.400 L798.807,419.848 L842.589,419.848 L890.772,371.677 L872.496,353.407 L858.793,339.709 C851.981,329.283 853.015,315.329 861.987,306.359 C872.311,296.040 889.566,295.728 900.119,306.279 L900.341,306.499 C915.940,322.093 940.778,322.548 955.918,307.412 C970.956,292.379 970.691,267.701 955.403,252.088 L955.958,251.532 C950.758,246.334 950.758,237.906 955.958,232.708 L955.404,232.155 L955.573,231.977 L937.296,213.705 L937.128,213.882 C921.634,229.372 921.528,254.421 936.811,270.040 L936.911,270.141 C942.012,275.344 942.102,283.574 937.089,288.588 C932.171,293.503 924.161,293.512 918.944,288.702 C918.403,288.163 918.479,288.088 918.479,288.088 L870.834,240.460 L1032.000,79.341 L995.448,79.341 L834.282,240.458 L842.589,248.764 L852.558,258.729 L867.349,273.516 C858.353,275.702 849.861,280.278 842.880,287.258 C836.242,293.894 831.777,301.895 829.475,310.398 L815.174,296.100 C804.634,285.565 804.620,268.493 815.133,257.941 L816.005,257.069 L793.073,234.144 C823.876,223.107 845.912,193.661 845.912,159.071 C845.912,115.037 810.206,79.341 766.159,79.341 L726.283,79.341 L726.283,105.917 L726.283,132.493 L752.867,159.071 C723.502,159.071 699.699,182.866 699.699,212.222 L673.115,212.222 L673.115,132.235 C673.115,117.628 684.962,105.788 699.577,105.788 L699.577,79.341 L332.423,79.341 L332.423,105.788 C347.037,105.788 358.885,117.628 358.885,132.235 L358.885,212.222 L332.301,212.222 C332.301,182.866 308.497,159.071 279.133,159.071 L305.717,132.493 L305.717,105.917 L305.717,79.341 L265.841,79.341 C221.794,79.341 186.088,115.037 186.088,159.071 C186.088,193.661 208.124,223.107 238.927,234.144 L215.995,257.069 L216.825,257.899 C227.337,268.451 227.365,285.565 216.825,296.100 L202.525,310.398 C200.223,301.895 195.758,293.894 189.120,287.258 C182.139,280.278 173.647,275.702 164.650,273.516 L179.442,258.729 L189.412,248.764 L197.719,240.458 L36.553,79.341 L-0.000,79.341 L161.166,240.460 L113.521,288.088 L112.982,288.627 C107.764,293.437 99.829,293.503 94.912,288.588 C89.898,283.574 89.988,275.344 95.089,270.141 L95.189,270.040 C110.473,254.421 110.366,229.372 94.872,213.882 L94.703,213.705 L76.427,231.977 L76.596,232.155 L76.042,232.708 C81.241,237.906 81.241,246.334 76.042,251.532 L76.597,252.088 C61.308,267.701 61.043,292.379 76.082,307.412 C91.222,322.548 116.142,322.176 131.742,306.581 C131.881,306.442 131.798,306.359 131.798,306.359 C142.351,295.809 159.689,296.040 170.013,306.359 C178.986,315.329 180.018,329.283 173.207,339.709 L159.504,353.407 L141.228,371.677 L189.412,419.848 L233.192,419.848 L233.192,393.400 L198.462,393.400 L178.611,372.507 L188.289,362.833 L235.933,315.202 C250.754,300.386 255.168,279.108 249.174,260.444 L270.825,238.798 L358.885,238.798 L358.885,446.294 C358.885,460.901 347.037,472.741 332.423,472.741 C317.809,472.741 305.962,460.901 305.962,446.294 C305.962,431.688 317.809,419.848 332.423,419.848 L332.423,393.400 C303.194,393.400 279.500,417.081 279.500,446.294 C279.500,475.506 303.194,499.188 332.423,499.188 ZM499.719,230.552 C458.867,246.948 439.037,293.023 455.261,333.739 L479.925,324.006 C469.038,296.803 482.305,266.009 509.631,255.102 C537.076,244.148 568.413,257.339 579.552,284.691 L604.703,274.766 C587.913,233.716 540.837,214.049 499.719,230.552 ZM582.154,-0.000 L582.154,26.448 L555.692,26.448 L555.692,-0.000 L529.230,-0.000 L529.230,26.448 L502.770,26.448 L502.770,-0.000 L476.308,-0.000 L476.308,26.448 L449.846,26.448 L449.846,-0.000 L423.385,-0.000 L423.385,52.895 L608.615,52.895 L608.615,-0.000 L582.154,-0.000 ZM990.654,195.047 L972.461,176.866 L954.269,195.047 L972.461,213.229 L990.654,195.047 ZM734.307,340.506 L699.577,340.506 L699.577,366.953 L744.230,366.953 L779.451,331.814 L762.006,314.373 L761.903,314.271 C751.453,303.713 751.487,286.685 762.006,276.170 L742.898,257.069 C722.071,277.890 721.796,311.477 742.077,332.635 L734.307,340.506 ZM864.188,137.477 L882.465,155.748 L958.894,79.341 L922.341,79.341 L864.188,137.477 ZM41.346,195.047 L59.539,213.229 L77.730,195.047 L59.539,176.866 L41.346,195.047 ZM297.692,340.506 L289.923,332.635 C310.203,311.477 309.929,277.890 289.101,257.069 L269.994,276.170 C280.513,286.685 280.547,303.713 270.097,314.271 L269.994,314.373 L252.549,331.814 L287.769,366.953 L332.423,366.953 L332.423,340.506 L297.692,340.506 ZM167.812,137.477 L109.660,79.341 L73.106,79.341 L149.535,155.748 L167.812,137.477 ZM699.577,419.848 C714.191,419.848 726.038,431.688 726.038,446.294 L752.500,446.294 C752.500,417.081 728.806,393.400 699.577,393.400 L699.577,419.848 Z"/>
<path fill-rule="evenodd"  fill="rgb(238, 238, 238)"
 d="M449.875,0.125 L449.875,26.625 L476.375,26.625 L476.375,0.125 L502.625,0.125 L502.625,26.625 L529.375,26.625 L529.375,0.125 L555.625,0.125 L555.625,26.625 L582.125,26.625 L582.125,0.125 L608.625,0.125 L608.625,52.875 L423.375,52.875 L423.375,0.125 L449.875,0.125 ZM448.625,1.125 L448.625,26.625 C448.875,26.875 449.375,27.375 449.625,27.625 L476.125,27.625 C476.625,27.375 477.125,27.125 477.375,26.875 L477.375,1.125 L501.625,1.125 L501.625,26.625 C501.875,26.875 502.375,27.375 502.625,27.625 L529.375,27.625 C529.625,27.375 530.125,26.875 530.375,26.625 L530.375,1.125 L554.625,1.125 L554.625,26.875 L555.375,27.625 L582.375,27.625 C582.625,27.375 583.125,26.875 583.375,26.375 L583.375,1.125 L607.375,1.125 L607.375,51.625 L424.625,51.625 L424.625,1.125 L448.625,1.125 ZM36.125,79.375 L197.625,240.375 L164.625,273.375 C166.375,274.125 168.125,274.875 170.125,275.125 C181.375,277.875 197.875,294.375 200.875,305.875 C201.125,307.375 202.125,308.875 202.625,310.375 C217.625,295.125 224.875,289.875 224.875,277.125 C224.875,270.625 222.375,263.625 216.125,257.125 L238.875,234.375 C238.625,233.875 237.875,233.375 237.375,233.375 C223.375,229.125 204.375,213.625 196.375,198.375 C195.125,195.875 193.625,193.374 192.625,190.875 C191.875,189.124 190.875,186.875 190.375,185.125 C189.875,182.875 188.875,180.624 188.375,178.375 C187.625,175.375 186.875,172.125 186.625,168.875 C186.375,166.875 186.125,163.375 186.125,162.875 L186.125,155.375 C186.625,150.875 187.125,145.125 188.125,140.875 C188.875,138.125 189.875,135.125 190.625,132.375 C194.625,117.875 211.375,96.375 227.875,88.875 C230.125,87.875 232.375,86.625 234.625,85.625 C237.125,84.375 240.125,83.375 242.875,82.625 C245.875,81.875 249.375,80.875 252.625,80.375 C255.625,79.875 261.375,79.375 262.125,79.375 L305.625,79.375 L305.625,132.125 L279.375,158.875 C281.375,159.125 283.375,159.375 285.375,159.375 C287.125,159.625 289.125,160.125 291.125,160.375 C303.875,161.875 324.125,178.125 328.375,192.625 C329.125,195.125 330.375,197.875 330.875,200.625 C331.375,202.625 332.125,206.625 332.125,207.375 L332.125,212.375 L358.875,212.375 L358.875,128.875 C358.625,128.125 358.125,126.875 358.125,126.125 C356.125,113.625 341.125,104.625 332.375,105.625 L332.375,79.375 L699.625,79.375 L699.625,105.625 C698.375,105.875 696.875,105.875 695.625,105.875 C687.875,105.875 675.125,116.625 673.875,125.125 C673.875,126.375 673.125,128.375 673.125,129.125 L673.125,212.375 L699.875,212.375 L699.875,207.375 C700.375,204.625 700.625,201.375 701.375,198.625 C701.875,196.625 702.875,194.375 703.375,192.625 C708.375,176.875 728.875,161.375 743.125,159.875 C746.125,159.625 749.375,159.375 752.625,158.875 L726.375,132.125 L726.375,79.375 L769.625,79.375 C819.375,83.375 845.875,121.875 845.875,159.125 C845.875,186.375 830.625,220.375 793.125,234.125 L815.875,257.125 C809.625,262.625 807.125,270.875 807.125,276.875 C807.125,290.125 814.125,295.125 829.375,310.375 C829.875,308.875 830.375,307.375 830.875,305.875 C834.375,293.125 851.375,278.125 859.875,275.875 C861.375,275.625 863.125,274.625 864.875,274.125 C865.375,273.875 866.875,273.875 867.375,273.375 L834.375,240.375 L995.875,79.375 L1031.875,79.375 L870.875,240.375 C886.875,256.625 903.125,273.375 919.875,289.375 C922.375,291.875 925.375,292.375 927.875,292.375 C935.625,292.375 940.875,285.875 940.875,279.375 C940.875,274.125 938.125,271.625 932.875,265.375 C927.875,259.375 925.375,248.875 925.375,242.125 C925.375,233.375 928.875,222.375 937.125,213.875 L955.875,232.625 C953.375,235.375 951.875,238.875 951.875,241.875 C951.875,244.625 953.375,249.125 955.875,251.625 L955.375,252.125 C963.875,261.125 966.875,270.875 966.875,280.375 C966.875,301.625 950.125,318.375 928.875,318.375 C920.875,318.375 910.625,315.875 902.875,308.625 C900.125,306.125 896.875,303.125 894.125,301.625 C890.125,299.625 884.875,298.375 881.125,298.375 C866.125,298.375 854.375,310.125 854.375,324.875 C854.375,329.125 854.375,333.625 857.375,337.625 C866.125,348.875 879.875,360.625 890.625,371.625 L841.875,419.875 L798.875,419.875 L798.875,393.374 L833.125,393.374 L853.375,372.625 C833.625,352.625 813.375,332.625 793.625,312.625 C791.125,310.125 789.125,307.125 787.625,304.375 C784.625,298.625 780.375,288.125 780.375,281.375 L780.375,272.625 C780.875,268.625 781.625,264.625 782.875,260.625 L760.625,238.625 L673.125,238.625 L673.125,411.625 C687.125,425.625 703.125,440.875 716.125,455.375 C719.625,459.125 724.375,467.875 724.375,473.125 C724.375,482.625 717.125,495.875 703.625,498.375 C702.625,498.375 700.875,499.125 700.125,499.125 L602.125,499.125 C585.375,515.625 568.125,532.374 551.625,549.375 C551.125,549.875 550.625,551.125 549.625,552.125 C548.125,553.875 546.375,555.625 544.625,556.875 C539.875,560.375 534.125,561.875 529.125,561.875 C519.875,561.875 508.625,556.875 504.125,544.125 C503.625,542.375 502.875,538.875 502.875,538.375 L502.875,499.125 L328.875,499.125 C325.875,498.625 322.625,497.875 319.375,497.375 C307.625,495.375 289.875,482.375 284.375,468.625 C284.125,467.625 283.375,466.375 282.875,465.125 C282.125,463.125 281.375,460.625 280.875,458.624 C280.375,456.125 279.625,451.125 279.625,450.625 L279.625,442.125 C280.125,438.875 280.875,435.375 281.375,432.125 C284.125,417.125 301.625,400.375 312.125,397.375 C313.875,396.875 315.875,395.875 317.875,395.375 C320.125,394.875 322.625,394.125 324.875,393.875 C326.625,393.625 329.875,393.374 330.625,393.374 L332.375,393.374 L332.375,419.875 C315.125,420.375 305.875,433.375 305.875,446.125 C305.875,460.875 318.375,472.875 332.375,472.875 C344.125,472.875 355.875,464.625 358.875,449.375 L358.875,238.625 L271.375,238.625 L249.125,260.625 C250.875,265.875 251.625,271.625 251.625,276.875 C251.625,284.625 251.125,287.875 247.875,296.625 C246.125,301.375 243.875,306.375 239.625,310.875 C219.875,331.625 199.125,351.875 178.625,372.375 L198.875,393.374 L233.125,393.374 L233.125,419.875 L190.125,419.875 L141.375,371.875 C151.875,361.125 162.875,350.625 173.125,339.625 C175.375,337.375 176.375,333.375 176.875,331.125 C177.125,330.125 177.375,329.125 177.625,328.124 L177.625,321.375 C175.375,305.625 161.625,298.375 150.625,298.375 C143.875,298.375 135.875,301.375 129.875,308.125 C128.125,310.125 125.375,311.625 123.375,312.875 C116.625,316.875 109.875,318.375 103.125,318.375 C89.875,318.375 74.125,311.875 67.125,293.374 C66.125,290.375 65.125,284.874 65.125,284.375 L65.125,276.375 C65.875,268.625 69.125,259.625 76.625,252.125 L76.125,251.625 C78.375,248.625 80.125,245.125 80.125,242.125 C80.125,239.625 78.375,234.875 76.125,232.625 L94.625,213.875 C102.875,220.875 106.625,234.125 106.625,242.125 C106.625,250.875 102.375,263.125 94.125,271.125 C93.625,271.375 93.125,272.125 92.875,272.875 C92.125,273.875 91.125,278.125 91.125,279.375 C91.125,286.625 96.875,292.375 103.875,292.375 C105.875,292.375 109.375,291.625 111.625,289.625 C128.125,273.625 144.625,257.125 161.125,240.625 L0.125,79.375 L36.125,79.375 ZM109.375,79.625 L167.625,137.375 L149.625,155.625 L73.375,79.625 L109.375,79.625 ZM958.625,79.625 L882.625,155.625 L864.375,137.625 L922.625,79.625 L958.625,79.625 ZM35.375,80.624 C36.125,80.624 36.375,80.624 36.875,81.125 C86.375,130.375 141.375,185.625 196.125,240.375 L163.625,273.375 C163.875,274.875 165.875,274.875 166.625,275.125 C170.375,276.125 174.625,278.125 178.625,280.375 C182.875,282.875 188.875,287.875 192.625,293.125 C193.625,294.125 194.625,295.625 195.375,297.125 C196.875,299.125 197.875,301.625 198.875,303.875 C199.375,304.875 200.875,311.375 202.625,311.375 C203.625,311.375 217.375,297.875 221.625,291.625 C222.625,290.125 223.375,288.625 223.875,287.125 C224.875,284.625 225.375,282.125 225.875,279.625 L225.875,274.125 C225.125,268.625 222.875,262.625 217.625,257.125 C223.125,251.625 239.875,235.375 239.875,234.125 C239.875,233.375 239.625,233.125 239.125,232.875 C227.125,228.375 212.625,219.875 202.375,205.625 C198.625,200.125 194.875,194.125 192.875,188.625 C191.375,184.625 189.625,179.375 188.875,175.625 C188.375,172.125 187.375,165.625 187.375,165.125 L187.375,153.125 C187.875,148.875 188.625,144.625 189.375,140.375 C192.375,123.874 207.625,100.375 227.875,90.125 C230.875,88.625 233.875,87.125 236.875,85.875 C239.625,84.625 243.125,83.625 246.125,82.875 C246.625,82.875 257.125,80.624 260.125,80.624 L304.625,80.624 L304.625,131.375 L278.125,158.875 C279.625,161.375 281.625,160.125 283.875,160.375 C285.125,160.375 286.625,160.625 287.875,160.875 C290.125,161.125 292.625,162.125 295.125,162.625 C309.375,165.875 324.375,183.375 327.375,193.125 C328.625,196.875 329.875,200.625 330.375,204.375 C330.625,206.625 331.125,209.625 331.125,212.375 C331.375,212.625 331.875,213.125 332.125,213.375 L359.125,213.375 C359.375,213.125 359.875,212.625 360.125,212.125 L360.125,130.375 C359.875,129.375 359.375,127.875 359.375,126.625 C358.875,118.625 346.875,105.875 338.375,105.125 C336.625,105.125 335.125,104.875 333.625,104.625 L333.625,80.624 L698.375,80.624 L698.375,104.625 C682.625,104.875 671.875,119.875 671.875,130.375 L671.875,211.875 C672.125,212.375 672.375,212.875 672.875,213.375 L699.875,213.375 C701.375,212.625 700.625,210.625 700.875,210.125 C700.625,206.375 701.625,202.125 702.625,198.375 C702.875,197.125 703.625,195.625 703.875,194.375 C707.625,180.875 725.125,165.125 737.625,162.375 C739.625,162.125 741.875,161.125 744.125,160.875 C746.625,160.375 749.875,160.375 752.625,160.125 C753.125,160.125 753.875,159.625 753.875,158.875 C753.875,157.875 734.875,140.125 727.375,131.875 L727.375,80.624 L771.625,80.624 C777.125,81.375 782.375,81.875 787.625,83.375 C827.625,95.375 844.625,129.625 844.625,159.125 C844.625,166.375 844.625,167.375 842.625,176.625 C841.875,180.624 840.375,184.874 838.625,189.124 C835.375,197.625 829.875,206.125 821.625,214.625 C814.375,222.125 805.625,227.125 798.375,230.625 C797.875,230.875 792.125,232.625 792.125,234.125 C792.125,235.375 809.875,252.625 814.375,257.125 C808.125,263.375 806.125,270.375 806.125,277.125 C806.125,280.375 806.375,283.375 807.875,287.125 C808.625,289.375 809.875,291.625 811.625,293.875 C817.125,299.875 828.625,311.375 829.375,311.375 C830.625,311.375 833.375,302.375 833.875,301.625 C837.625,292.375 849.625,280.875 858.625,277.625 C861.125,276.625 864.375,275.625 867.125,274.625 C867.375,274.625 868.375,273.875 868.375,273.375 L835.875,240.375 C890.375,185.875 944.875,131.375 995.875,80.624 L1029.125,80.624 L869.875,240.375 C869.875,240.375 869.875,240.875 869.875,241.125 C886.375,257.625 902.625,274.125 919.375,290.375 C921.625,292.625 925.125,293.374 927.875,293.374 C933.875,293.374 940.125,289.875 941.875,281.875 L941.875,277.125 C941.125,273.875 938.625,270.375 935.375,266.875 C933.625,264.875 931.875,262.125 930.625,259.625 C929.125,257.125 926.625,248.875 926.625,245.375 L926.625,238.875 C927.375,231.375 930.125,222.625 937.125,215.374 L954.375,232.625 C952.125,235.375 950.875,238.875 950.875,242.125 C950.875,242.625 951.125,245.875 951.875,247.625 C952.375,248.875 953.375,249.875 954.125,251.375 C954.375,251.375 954.125,252.125 954.375,252.625 C958.125,257.125 960.875,261.125 962.625,265.125 C964.875,269.625 965.875,275.625 965.875,280.375 C965.875,300.875 949.375,317.375 928.875,317.375 C925.375,317.375 921.125,316.375 918.125,315.625 C915.375,314.875 912.125,313.625 909.375,311.875 C907.875,311.125 905.875,309.875 904.625,308.625 C896.125,300.125 888.875,297.375 881.125,297.375 C865.625,297.375 853.125,309.375 853.125,324.875 C853.125,329.125 853.875,335.375 857.125,339.375 C866.875,350.625 878.375,360.875 889.125,371.625 L841.625,418.625 L799.875,418.625 L799.875,394.625 L833.375,394.625 C838.875,389.875 854.375,373.625 854.375,372.375 C854.375,371.125 844.875,362.375 843.875,361.375 C827.625,345.125 810.875,328.625 794.875,312.375 C793.125,310.625 791.875,308.375 790.375,306.625 C785.625,300.625 781.375,286.875 781.375,279.625 L781.375,274.125 C781.625,272.125 781.875,269.875 782.125,267.625 C782.625,265.375 783.875,261.125 783.875,260.625 C783.875,259.125 767.875,243.875 763.625,239.625 C762.875,238.875 761.875,237.625 761.125,237.625 L672.875,237.625 C672.625,237.875 671.875,238.125 671.875,238.875 L671.875,411.375 C685.875,426.375 701.875,440.625 715.125,455.875 C719.625,460.875 723.125,467.875 723.125,473.125 C723.125,487.625 710.875,498.125 697.375,498.125 L601.625,498.125 C584.875,514.625 567.625,531.375 550.875,548.625 C550.125,549.375 549.625,550.625 548.625,551.625 C547.375,553.125 545.375,554.875 544.125,555.875 C540.125,558.875 533.875,560.875 529.375,560.875 C515.375,560.875 503.875,548.625 503.875,536.875 L503.875,498.875 L503.125,497.875 L327.375,497.875 C325.375,497.624 322.875,497.125 320.875,496.625 C319.375,496.375 317.875,495.625 316.375,495.375 C305.125,493.125 287.125,476.625 283.875,464.625 C283.625,462.874 282.875,461.625 282.375,460.125 C282.125,458.624 281.625,457.125 281.375,455.625 C280.875,453.375 280.625,449.375 280.625,448.875 L280.625,443.625 C280.875,441.375 281.375,439.125 281.375,436.875 C282.375,424.375 296.625,403.625 311.875,398.625 C312.875,398.375 314.125,397.624 315.125,397.375 C316.875,396.875 319.375,396.125 321.375,395.625 C323.375,395.375 327.625,394.625 328.375,394.625 L331.125,394.625 L331.125,418.625 C313.375,419.875 304.875,433.625 304.875,446.125 C304.875,461.625 317.625,473.875 332.375,473.875 C344.875,473.875 358.625,464.875 360.125,447.875 L360.125,238.625 C359.875,238.625 359.625,238.125 359.125,237.625 L270.625,237.625 C264.875,242.625 248.125,259.125 248.125,260.625 C248.125,261.125 249.125,264.625 249.375,266.625 C250.125,269.875 250.625,276.375 250.625,276.875 C250.625,282.625 248.875,290.875 246.875,296.125 C245.375,300.125 242.875,304.875 239.375,309.375 C236.625,312.875 233.125,316.375 229.625,319.875 C226.875,322.375 223.625,325.625 220.875,328.625 C218.625,330.625 215.875,333.375 213.625,335.875 C204.125,345.125 177.625,370.875 177.625,372.375 C177.625,373.125 197.875,394.625 198.375,394.625 L232.125,394.625 L232.125,418.625 L190.375,418.625 L142.875,371.625 C153.375,361.125 164.125,350.875 174.125,340.125 C175.375,338.875 176.125,336.875 176.625,335.375 C178.125,331.875 178.875,328.375 178.875,324.875 C178.875,308.875 165.375,297.375 150.875,297.375 C144.125,297.375 136.625,299.625 129.625,306.875 C122.125,314.625 111.125,317.375 103.125,317.375 C89.875,317.375 74.375,310.375 67.875,292.125 C66.875,289.124 66.125,283.625 66.125,283.125 L66.125,277.375 C66.875,272.125 68.125,265.625 71.375,260.625 C72.875,258.125 75.125,255.375 77.375,252.625 C77.625,252.375 77.625,251.875 77.625,251.375 C80.125,248.625 81.125,244.875 81.125,242.125 C81.125,239.125 80.125,235.625 77.625,232.625 L94.625,215.374 C102.625,223.874 105.375,233.125 105.375,242.125 C105.375,250.375 103.375,258.875 96.375,266.875 C91.625,272.125 90.125,274.875 90.125,279.375 C90.125,287.125 96.125,293.374 103.625,293.374 C106.375,293.374 109.125,293.125 111.375,291.125 C128.125,276.125 145.125,257.625 161.875,241.125 C162.125,240.875 162.125,240.625 162.125,240.375 L2.875,80.624 L35.375,80.624 ZM109.125,80.875 L166.125,137.375 L149.625,154.125 L76.125,80.875 L109.125,80.875 ZM955.875,80.875 L882.375,154.125 L865.875,137.625 L922.875,80.875 L955.875,80.875 ZM280.125,105.875 L280.125,122.375 L248.625,153.625 C243.625,151.625 238.375,139.875 238.375,135.625 L238.375,129.625 C238.875,127.625 239.375,125.125 239.875,123.125 C241.875,115.125 253.375,105.875 260.625,105.375 C264.125,105.125 271.375,104.875 271.875,104.875 C274.125,104.875 279.375,104.625 280.125,105.875 ZM646.875,104.875 L647.625,105.625 L647.625,385.125 C647.375,385.375 647.125,385.875 646.625,385.875 C645.875,385.875 593.125,332.625 566.375,306.125 C561.125,300.875 555.625,295.625 550.625,290.375 C542.875,282.375 536.625,278.625 529.125,278.625 C518.875,278.625 506.375,285.375 503.875,300.125 C503.875,300.625 503.625,301.875 503.625,302.625 L503.375,473.625 L377.875,473.625 C377.625,473.375 377.375,473.375 377.375,472.625 C377.375,472.125 379.375,468.625 380.125,466.625 C381.875,462.625 382.875,458.624 383.625,454.625 C383.875,453.125 384.125,451.625 384.375,450.124 L384.375,105.625 L385.125,104.875 L646.875,104.875 ZM772.375,105.625 C787.125,109.875 793.625,121.375 793.625,132.375 C793.625,139.125 790.875,148.375 783.125,153.625 L751.875,122.375 L751.875,105.875 C752.125,104.625 758.375,104.875 759.875,104.875 C763.875,104.875 768.625,104.625 772.375,105.625 ZM646.375,105.875 L646.375,384.625 C614.375,352.625 581.875,320.375 549.875,288.125 C542.375,280.625 536.375,277.625 529.125,277.625 C520.125,277.625 509.375,281.625 504.125,294.875 C503.375,296.625 502.625,300.625 502.625,301.375 L502.625,472.625 L378.625,472.625 C382.875,464.375 385.125,456.125 385.625,447.875 L385.625,105.875 L646.375,105.875 ZM278.875,106.125 L278.875,122.125 L248.875,152.625 C241.875,147.375 239.375,138.125 239.375,132.375 C239.375,120.875 247.125,107.625 263.625,106.125 L278.875,106.125 ZM768.125,106.125 C784.375,107.625 792.625,120.875 792.625,132.375 C792.625,138.125 789.875,147.375 783.375,152.625 L753.125,122.125 L753.125,106.125 L768.125,106.125 ZM214.875,145.125 C215.625,147.375 216.375,149.875 217.375,152.375 C218.375,154.875 219.875,157.625 221.375,160.125 C230.375,174.625 245.125,182.125 257.125,183.875 C258.125,184.125 260.625,184.625 261.375,184.625 L280.375,184.625 C295.875,185.125 306.625,199.125 306.625,211.125 C306.625,211.625 306.625,212.375 306.125,213.125 L261.875,213.125 C229.375,209.625 211.625,183.875 211.625,159.125 C211.625,155.125 212.375,148.875 213.625,145.125 L214.875,145.125 ZM818.125,145.125 C820.375,150.875 820.125,153.625 820.125,158.875 C820.125,178.625 809.625,201.625 782.125,210.625 C779.625,211.375 773.375,213.125 769.875,213.125 L725.875,213.125 C725.375,212.375 725.375,211.625 725.375,210.875 C725.375,195.875 739.875,184.625 751.375,184.625 L770.625,184.625 C773.375,184.125 776.125,183.375 778.625,183.125 C790.375,181.125 808.375,167.625 813.625,154.125 C814.375,151.875 815.625,149.625 816.125,147.375 C816.125,146.625 816.625,145.875 816.875,145.125 L818.125,145.125 ZM216.625,153.375 C221.375,168.125 242.625,183.375 255.125,184.625 C257.625,184.874 262.375,185.875 263.125,185.875 L281.875,185.875 C296.125,187.375 305.625,200.625 305.625,211.125 L305.625,212.125 L264.125,212.125 C262.125,211.875 260.125,211.625 258.125,211.375 C255.875,211.125 253.375,210.375 251.125,209.875 C239.875,207.625 222.625,194.375 217.625,181.375 C217.375,180.375 216.625,179.125 216.125,177.875 C215.125,175.375 214.375,172.625 213.875,170.125 C213.375,167.875 212.875,163.375 212.875,162.875 L212.875,155.375 C213.375,152.375 213.625,149.375 214.375,146.375 C214.875,148.625 215.875,150.875 216.625,153.375 ZM819.125,159.125 C819.125,180.375 805.125,205.375 775.375,211.125 C772.875,211.625 768.375,212.125 767.625,212.125 L726.375,212.125 L726.375,211.125 C726.625,209.375 726.875,207.375 727.125,205.625 C728.125,197.875 739.125,186.875 746.875,186.375 C747.875,186.375 749.125,185.875 749.875,185.875 L769.125,185.875 C772.125,185.625 775.125,185.125 778.125,184.375 C785.625,182.625 793.625,179.125 801.375,172.375 C810.875,163.875 815.125,154.875 817.625,146.375 C818.125,149.625 819.125,155.125 819.125,159.125 ZM77.625,195.125 L59.625,213.125 L41.375,195.125 L59.375,177.125 L77.625,195.125 ZM990.625,195.125 L972.625,213.125 L954.375,195.125 L972.375,177.125 L990.625,195.125 ZM76.125,195.125 L59.625,211.625 L43.125,195.125 L59.375,178.625 L76.125,195.125 ZM988.875,194.875 L972.375,211.625 L955.875,195.125 L972.375,178.625 L988.875,194.875 ZM604.625,274.625 L579.625,284.625 C568.875,260.375 547.375,251.125 529.625,251.125 C500.125,251.125 476.125,274.625 476.125,304.125 C476.125,311.875 476.625,314.875 479.875,323.874 L455.625,333.625 C453.125,328.625 449.625,314.875 449.625,307.875 L449.625,300.875 C453.875,249.375 493.375,224.875 529.875,224.875 C556.625,224.875 588.625,238.125 604.625,274.625 ZM603.125,273.875 L580.125,283.125 C569.125,258.624 547.125,250.124 529.375,250.124 C499.125,250.124 474.875,274.625 474.875,304.375 C474.875,309.875 476.375,318.375 478.375,323.125 L456.125,332.125 C454.375,329.875 450.875,315.125 450.875,310.125 L450.875,298.625 C456.125,249.875 494.375,225.875 529.875,225.875 C555.875,225.875 587.625,239.375 603.125,273.875 ZM304.875,295.125 C304.875,307.125 300.625,320.875 289.875,332.625 C292.375,335.125 295.125,337.875 297.875,340.625 L332.375,340.625 L332.375,366.875 L288.375,366.875 L252.625,331.875 C260.875,322.125 276.375,311.125 277.125,301.625 C277.125,300.625 277.625,299.625 277.875,298.625 L277.875,291.625 C276.875,286.625 274.875,281.125 270.125,276.125 L289.125,257.125 C300.625,268.875 304.875,283.125 304.875,295.125 ZM761.875,276.125 C755.625,282.875 754.125,288.625 754.125,295.125 C754.125,309.875 762.375,314.375 779.375,331.875 L743.625,366.875 L699.625,366.875 L699.625,340.625 L734.125,340.625 C736.625,338.125 739.375,335.375 742.125,332.625 C732.875,322.875 729.125,313.125 727.625,303.375 C727.375,301.875 727.125,299.125 727.125,298.625 L727.125,291.875 C727.875,280.625 731.875,268.125 742.875,257.125 L761.875,276.125 ZM303.625,295.125 C303.625,318.625 288.875,331.375 288.875,332.625 C288.875,333.125 296.625,341.625 297.375,341.625 L331.125,341.625 L331.125,365.875 L288.875,365.875 L254.125,331.875 C270.375,315.125 279.125,309.375 279.125,295.125 C279.125,288.625 276.875,282.625 271.625,276.375 L289.125,258.624 C300.375,271.375 303.625,282.625 303.625,295.125 ZM760.375,276.125 C754.875,282.125 752.875,288.875 752.875,295.125 C752.875,309.375 761.375,315.125 777.875,331.875 C766.625,342.875 743.875,365.875 743.125,365.875 L700.625,365.875 L700.625,341.625 L734.375,341.625 C737.375,338.875 743.125,333.125 743.125,332.625 C743.125,331.875 738.125,326.625 736.375,323.625 C731.125,315.125 728.125,304.375 728.125,295.375 C728.125,283.375 732.375,270.125 742.875,258.624 L760.375,276.125 ZM698.625,472.625 C698.625,472.875 698.375,473.375 698.125,473.625 L593.125,473.625 L529.125,536.375 C528.875,536.375 528.625,536.125 528.375,535.875 L528.375,303.875 C528.625,303.625 529.125,303.375 529.375,303.375 L698.625,472.625 ZM697.625,472.625 L592.625,472.625 L529.375,535.125 L529.375,304.375 L697.625,472.625 ZM749.625,429.625 C750.125,431.125 752.375,438.875 752.375,442.125 L752.375,446.125 L726.125,446.125 C726.125,444.375 725.625,442.375 725.375,440.625 C724.375,431.875 713.125,420.875 704.625,420.125 C703.125,420.125 701.375,419.875 699.625,419.875 L699.625,393.374 L700.375,393.374 C718.375,393.374 742.125,405.625 749.625,429.625 ZM703.375,394.625 C705.875,394.875 708.375,395.375 710.625,395.625 C722.875,397.125 742.375,411.625 747.125,426.125 C747.875,428.124 748.625,430.375 749.375,432.625 C749.875,434.625 750.375,436.625 750.625,438.625 C750.875,440.125 751.375,443.375 751.375,444.125 L751.375,445.125 L727.125,445.125 C726.875,442.375 726.375,439.375 725.375,436.875 C724.875,435.375 724.125,433.375 723.125,432.125 C719.125,424.875 711.125,420.125 705.125,419.125 C703.625,418.875 700.625,418.875 700.625,418.375 L700.625,394.625 L703.375,394.625 Z"/>
</svg>