<svg
 xmlns="http://www.w3.org/2000/svg"
 xmlns:xlink="http://www.w3.org/1999/xlink"
 width="20px" height="20px">
<path fill-rule="evenodd"  fill="rgb(51, 51, 51)"
 d="M17.656,20.000 L2.344,20.000 C1.051,20.000 -0.000,18.948 -0.000,17.656 L-0.000,12.226 L1.562,12.226 L1.562,17.656 C1.562,18.087 1.913,18.437 2.344,18.437 L17.656,18.437 C18.087,18.437 18.437,18.087 18.437,17.656 L18.437,12.226 L20.000,12.226 L20.000,17.656 C20.000,18.948 18.949,20.000 17.656,20.000 ZM5.145,10.312 L6.250,9.207 L9.219,12.176 L9.219,-0.000 L10.781,-0.000 L10.781,12.176 L13.750,9.207 L14.855,10.312 L10.000,15.167 L5.145,10.312 Z"/>
</svg>