<svg
 xmlns="http://www.w3.org/2000/svg"
 xmlns:xlink="http://www.w3.org/1999/xlink"
 width="13px" height="24px">
<path fill-rule="evenodd"  fill="rgb(255, 255, 255)"
 d="M12.344,0.082 L9.312,0.078 C5.906,0.078 3.705,2.381 3.705,5.946 L3.705,8.652 L0.656,8.652 C0.393,8.652 0.180,8.869 0.180,9.138 L0.180,13.057 C0.180,13.327 0.393,13.544 0.656,13.544 L3.705,13.544 L3.705,23.436 C3.705,23.704 3.918,23.922 4.181,23.922 L8.159,23.922 C8.422,23.922 8.636,23.704 8.636,23.436 L8.636,13.544 L12.200,13.544 C12.463,13.544 12.677,13.327 12.677,13.057 L12.678,9.138 C12.678,9.009 12.628,8.885 12.539,8.795 C12.449,8.704 12.328,8.652 12.201,8.652 L8.636,8.652 L8.636,6.358 C8.636,5.255 8.894,4.696 10.301,4.696 L12.344,4.696 C12.607,4.696 12.820,4.477 12.820,4.209 L12.820,0.569 C12.820,0.301 12.607,0.083 12.344,0.082 Z"/>
</svg>