<svg
 xmlns="http://www.w3.org/2000/svg"
 xmlns:xlink="http://www.w3.org/1999/xlink"
 width="15px" height="10px">
<path fill-rule="evenodd"  fill="rgb(51, 51, 51)"
 d="M0.500,3.714 L0.500,3.714 C0.500,4.573 0.831,5.380 1.432,5.987 C2.033,6.594 2.832,6.928 3.682,6.928 L9.409,6.928 C10.462,6.928 11.318,6.063 11.318,5.000 C11.318,3.936 10.462,3.071 9.409,3.071 L6.104,3.071 C5.753,3.071 5.468,3.359 5.468,3.714 C5.468,4.069 5.753,4.357 6.104,4.357 L9.409,4.357 C9.760,4.357 10.045,4.646 10.045,5.000 C10.045,5.354 9.760,5.643 9.409,5.643 L3.682,5.643 C3.172,5.643 2.692,5.442 2.332,5.078 C1.971,4.714 1.773,4.229 1.773,3.714 C1.773,2.651 2.629,1.786 3.682,1.786 L10.045,1.786 C11.800,1.786 13.227,3.228 13.227,5.000 C13.227,5.859 12.896,6.666 12.295,7.273 C11.694,7.880 10.895,8.214 10.045,8.214 L3.682,8.214 C3.330,8.214 3.045,8.502 3.045,8.857 C3.045,9.212 3.330,9.500 3.682,9.500 L10.045,9.500 C11.235,9.500 12.354,9.032 13.195,8.182 C14.037,7.332 14.500,6.202 14.500,5.000 C14.500,2.519 12.502,0.500 10.045,0.500 L3.682,0.500 C1.927,0.500 0.500,1.942 0.500,3.714 Z"/>
</svg>