<svg
 xmlns="http://www.w3.org/2000/svg"
 xmlns:xlink="http://www.w3.org/1999/xlink"
 width="134px" height="80px">
<path fill-rule="evenodd"  fill="rgb(255, 229, 153)"
 d="M103.721,11.183 C103.721,5.007 87.281,-0.000 67.000,-0.000 C46.719,-0.000 30.279,5.007 30.279,11.183 L30.279,64.946 C30.279,72.073 36.047,77.849 43.163,77.849 L90.837,77.849 C97.953,77.849 103.721,72.073 103.721,64.946 L103.721,11.183 Z"/>
<path fill-rule="evenodd"  opacity="0.2" fill="rgb(52, 52, 64)"
 d="M53.471,24.086 L53.471,64.946 L61.846,64.946 L61.846,46.344 L61.846,46.236 C61.904,42.545 64.911,39.569 68.611,39.569 C70.468,39.569 72.151,40.319 73.374,41.533 L73.442,41.505 L80.529,48.602 L80.529,24.086 L53.471,24.086 Z"/>
<path fill-rule="evenodd"  fill="rgb(51, 51, 51)"
 d="M94.304,34.492 C94.304,32.583 95.850,31.035 97.756,31.035 L99.482,31.035 L99.698,31.035 C102.819,30.935 105.419,28.764 106.168,25.848 C106.310,26.401 106.385,26.980 106.385,27.577 C106.385,31.396 103.295,34.492 99.482,34.492 L94.304,34.492 ZM97.756,22.823 L97.756,20.662 L99.482,20.662 C101.388,20.662 102.934,22.210 102.934,24.119 C102.934,25.184 102.453,26.136 101.697,26.771 L97.756,22.823 ZM68.718,46.451 L90.622,68.387 L76.878,68.387 L74.731,70.537 L73.442,71.827 L68.718,76.559 L68.718,46.451 ZM39.696,34.492 L34.518,34.492 C30.705,34.492 27.614,31.396 27.614,27.577 C27.614,26.980 27.690,26.401 27.832,25.848 C28.581,28.764 31.181,30.935 34.302,31.031 L34.518,31.035 L36.244,31.035 C38.150,31.035 39.696,32.583 39.696,34.492 ZM36.244,22.823 L32.302,26.771 C31.547,26.136 31.066,25.184 31.066,24.119 C31.066,22.210 32.612,20.662 34.518,20.662 L36.244,20.662 L36.244,22.823 ZM65.282,68.387 L49.116,68.387 C49.701,67.374 50.035,66.199 50.035,64.946 L50.035,20.645 L83.965,20.645 L83.965,56.989 L71.650,44.657 C70.744,43.750 69.959,43.010 68.718,43.010 C66.820,43.010 65.282,44.551 65.282,46.451 L65.282,68.387 ZM43.163,71.827 L65.282,71.827 L65.282,76.559 C65.282,78.459 66.820,80.000 68.718,80.000 C69.959,80.000 71.046,79.341 71.650,78.354 L78.167,71.827 L90.622,71.827 C92.519,71.827 94.058,70.287 94.058,68.387 C94.058,67.768 93.494,66.532 92.415,65.451 L87.401,60.430 L87.401,37.950 L98.835,37.950 L101.646,40.766 C100.868,43.194 101.441,45.963 103.365,47.891 L109.552,54.087 L110.808,55.346 L108.231,58.064 L103.721,58.064 L103.721,61.505 L109.406,61.505 L115.662,55.238 L113.289,52.861 L111.510,51.079 C110.626,49.723 110.760,47.907 111.925,46.740 C113.265,45.398 115.506,45.357 116.876,46.729 L116.905,46.758 C118.930,48.787 122.155,48.846 124.121,46.877 C126.074,44.921 126.039,41.710 124.054,39.679 L124.126,39.607 C123.451,38.931 123.451,37.834 124.126,37.158 L124.054,37.086 L124.076,37.063 L121.703,34.685 L121.681,34.708 C119.669,36.724 119.656,39.983 121.640,42.015 L121.653,42.028 C122.315,42.705 122.327,43.776 121.676,44.428 C121.038,45.068 119.998,45.069 119.320,44.442 C119.250,44.373 119.260,44.363 119.260,44.363 L113.073,38.166 L134.000,17.204 L129.254,17.204 L108.327,38.166 L109.406,39.247 L110.700,40.543 L112.621,42.467 C111.453,42.751 110.350,43.347 109.444,44.255 C108.582,45.118 108.002,46.159 107.703,47.266 L105.846,45.405 C104.478,44.034 104.476,41.813 105.841,40.441 L105.954,40.327 L102.976,37.344 C106.976,35.909 109.837,32.077 109.837,27.577 C109.837,21.848 105.201,17.204 99.482,17.204 L94.304,17.204 L94.304,20.662 L94.304,24.119 L97.756,27.577 C93.943,27.577 90.852,30.673 90.852,34.492 L87.401,34.492 L87.401,24.086 C87.401,22.185 88.939,20.645 90.837,20.645 L90.837,17.204 L43.163,17.204 L43.163,20.645 C45.061,20.645 46.599,22.185 46.599,24.086 L46.599,34.492 L43.148,34.492 C43.148,30.673 40.057,27.577 36.244,27.577 L39.696,24.119 L39.696,20.662 L39.696,17.204 L34.518,17.204 C28.799,17.204 24.163,21.848 24.163,27.577 C24.163,32.077 27.024,35.909 31.023,37.344 L28.046,40.327 L28.154,40.435 C29.519,41.808 29.522,44.034 28.154,45.405 L26.297,47.266 C25.998,46.159 25.418,45.118 24.556,44.255 C23.650,43.347 22.547,42.751 21.379,42.467 L23.300,40.543 L24.594,39.247 L25.673,38.166 L4.746,17.204 L-0.000,17.204 L20.927,38.166 L14.740,44.363 L14.670,44.433 C13.993,45.059 12.962,45.068 12.324,44.428 C11.673,43.776 11.684,42.705 12.347,42.028 L12.360,42.015 C14.344,39.983 14.330,36.724 12.318,34.708 L12.297,34.685 L9.923,37.063 L9.945,37.086 L9.874,37.158 C10.549,37.834 10.549,38.931 9.874,39.607 L9.946,39.679 C7.960,41.710 7.926,44.921 9.879,46.877 C11.845,48.846 15.080,48.798 17.106,46.769 C17.124,46.750 17.113,46.740 17.113,46.740 C18.483,45.367 20.735,45.398 22.075,46.740 C23.240,47.907 23.374,49.723 22.490,51.079 L20.711,52.861 L18.338,55.238 L24.594,61.505 L30.279,61.505 L30.279,58.064 L25.769,58.064 L23.192,55.346 L24.448,54.087 L30.635,47.891 C32.559,45.963 33.132,43.194 32.354,40.766 L35.165,37.950 L46.599,37.950 L46.599,64.946 C46.599,66.846 45.061,68.387 43.163,68.387 C41.266,68.387 39.728,66.846 39.728,64.946 C39.728,63.046 41.266,61.505 43.163,61.505 L43.163,58.064 C39.368,58.064 36.292,61.145 36.292,64.946 C36.292,68.747 39.368,71.827 43.163,71.827 ZM64.886,36.877 C59.582,39.010 57.007,45.005 59.113,50.302 L62.316,49.036 C60.902,45.497 62.625,41.490 66.173,40.071 C69.736,38.646 73.806,40.362 75.252,43.921 L78.518,42.629 C76.338,37.289 70.225,34.730 64.886,36.877 ZM75.590,6.881 L75.590,10.322 L72.154,10.322 L72.154,6.881 L68.718,6.881 L68.718,10.322 L65.282,10.322 L65.282,6.881 L61.846,6.881 L61.846,10.322 L58.410,10.322 L58.410,6.881 L54.974,6.881 L54.974,13.763 L79.026,13.763 L79.026,6.881 L75.590,6.881 ZM128.631,32.258 L126.269,29.892 L123.907,32.258 L126.269,34.623 L128.631,32.258 ZM95.346,51.182 L90.837,51.182 L90.837,54.623 L96.635,54.623 L101.208,50.052 L98.943,47.783 L98.929,47.769 C97.572,46.396 97.577,44.180 98.943,42.812 L96.462,40.327 C93.757,43.036 93.722,47.406 96.355,50.158 L95.346,51.182 ZM112.210,24.768 L114.584,27.145 L124.507,17.204 L119.761,17.204 L112.210,24.768 ZM5.368,32.258 L7.731,34.623 L10.093,32.258 L7.731,29.892 L5.368,32.258 ZM38.654,51.182 L37.645,50.158 C40.278,47.406 40.243,43.036 37.538,40.327 L35.057,42.812 C36.423,44.180 36.428,46.396 35.071,47.769 L35.057,47.783 L32.792,50.052 L37.365,54.623 L43.163,54.623 L43.163,51.182 L38.654,51.182 ZM21.790,24.768 L14.239,17.204 L9.492,17.204 L19.416,27.145 L21.790,24.768 ZM90.837,61.505 C92.734,61.505 94.272,63.046 94.272,64.946 L97.708,64.946 C97.708,61.145 94.632,58.064 90.837,58.064 L90.837,61.505 Z"/>
</svg>