<svg
 xmlns="http://www.w3.org/2000/svg"
 xmlns:xlink="http://www.w3.org/1999/xlink"
 width="32px" height="30px">
<path fill-rule="evenodd"  fill="rgb(255, 222, 163)"
 d="M12.000,20.000 L9.000,23.000 L20.000,23.000 L25.000,28.000 L25.000,24.000 L29.000,24.000 L31.000,22.000 L31.000,6.000 L29.000,4.000 L26.000,4.000 L26.000,18.000 L24.000,20.000 L12.000,20.000 Z"/>
<path fill-rule="evenodd"  fill="rgb(254, 195, 70)"
 d="M29.187,24.375 L26.375,24.375 L26.375,29.062 C26.375,29.900 25.361,30.312 24.775,29.725 L19.424,24.375 L8.826,24.375 L7.225,25.975 C6.639,26.562 5.625,26.149 5.625,25.312 L5.625,20.625 L2.812,20.625 C1.262,20.625 -0.000,19.363 -0.000,17.812 L-0.000,2.812 C-0.000,1.261 1.262,-0.000 2.812,-0.000 L23.562,-0.000 C25.113,-0.000 26.375,1.261 26.375,2.812 L26.375,3.750 L29.187,3.750 C30.738,3.750 32.000,5.012 32.000,6.562 L32.000,21.562 C32.000,23.113 30.738,24.375 29.187,24.375 ZM24.500,2.812 C24.500,2.295 24.079,1.875 23.562,1.875 L2.812,1.875 C2.295,1.875 1.875,2.295 1.875,2.812 L1.875,17.812 C1.875,18.329 2.295,18.750 2.812,18.750 L6.562,18.750 C7.080,18.750 7.500,19.170 7.500,19.687 L7.500,23.049 L11.525,19.025 C11.700,18.849 11.939,18.750 12.187,18.750 L23.562,18.750 C24.079,18.750 24.500,18.329 24.500,17.812 L24.500,2.812 ZM30.125,6.562 C30.125,6.045 29.704,5.625 29.187,5.625 L26.375,5.625 L26.375,17.812 C26.375,19.363 25.113,20.625 23.562,20.625 L12.576,20.625 L10.701,22.500 L19.812,22.500 C20.061,22.500 20.300,22.599 20.475,22.774 L24.500,26.799 L24.500,23.437 C24.500,22.919 24.920,22.500 25.437,22.500 L29.187,22.500 C29.704,22.500 30.125,22.079 30.125,21.562 L30.125,6.562 ZM21.687,11.250 L4.687,11.250 C4.170,11.250 3.750,10.830 3.750,10.312 C3.750,9.795 4.170,9.375 4.687,9.375 L21.687,9.375 C22.205,9.375 22.625,9.795 22.625,10.312 C22.625,10.830 22.205,11.250 21.687,11.250 ZM17.937,7.499 L4.687,7.499 C4.170,7.499 3.750,7.080 3.750,6.562 C3.750,6.045 4.170,5.625 4.687,5.625 L17.937,5.625 C18.455,5.625 18.875,6.045 18.875,6.562 C18.875,7.080 18.455,7.499 17.937,7.499 ZM4.687,13.125 L14.187,13.125 C14.705,13.125 15.125,13.544 15.125,14.062 C15.125,14.580 14.705,15.000 14.187,15.000 L4.687,15.000 C4.170,15.000 3.750,14.580 3.750,14.062 C3.750,13.544 4.170,13.125 4.687,13.125 Z"/>
</svg>