<svg
 xmlns="http://www.w3.org/2000/svg"
 xmlns:xlink="http://www.w3.org/1999/xlink"
 width="17px" height="18px">
<path fill-rule="evenodd"  opacity="0.902" fill="rgb(255, 229, 153)"
 d="M10.751,13.929 C12.871,13.929 14.685,15.236 15.473,17.103 C15.676,17.582 16.175,18.000 16.685,18.000 C16.948,18.000 17.094,17.580 16.932,17.085 C16.070,14.444 13.630,12.528 10.751,12.528 L6.226,12.528 C3.357,12.528 0.905,14.437 0.040,17.085 C-0.122,17.580 0.225,18.000 0.735,18.000 C1.000,18.000 1.302,17.582 1.505,17.104 C2.295,15.244 4.108,13.929 6.226,13.929 L10.751,13.929 ZM8.457,10.600 C11.325,10.600 13.651,8.223 13.651,5.292 C13.651,2.361 11.325,-0.000 8.457,-0.000 C5.589,-0.000 3.262,2.377 3.262,5.292 C3.262,8.207 5.589,10.600 8.457,10.600 ZM8.457,1.384 C10.560,1.384 12.281,3.142 12.281,5.292 C12.281,7.441 10.560,9.200 8.457,9.200 C6.353,9.200 4.633,7.441 4.633,5.292 C4.633,3.142 6.353,1.384 8.457,1.384 Z"/>
</svg>