<svg
 xmlns="http://www.w3.org/2000/svg"
 xmlns:xlink="http://www.w3.org/1999/xlink"
 width="301px" height="178px">
<path fill-rule="evenodd"  fill="rgb(237, 213, 142)"
 d="M152.000,59.000 L151.000,59.000 L121.000,29.000 L121.000,1.000 L151.000,1.000 L180.000,30.000 L180.000,59.000 L152.000,59.000 ZM151.000,60.000 L180.000,89.000 L180.000,118.000 L151.000,118.000 L121.000,88.000 L121.000,60.000 L150.000,60.000 L151.000,60.000 ZM180.000,60.000 L180.000,87.000 L153.000,60.000 L180.000,60.000 ZM31.000,119.000 L60.000,148.000 L60.000,177.000 L31.000,177.000 L1.000,147.000 L1.000,119.000 L31.000,119.000 ZM92.000,118.000 L91.000,118.000 L61.000,88.000 L61.000,60.000 L91.000,60.000 L120.000,89.000 L120.000,118.000 L92.000,118.000 ZM91.000,119.000 L120.000,148.000 L120.000,177.000 L91.000,177.000 L61.000,147.000 L61.000,119.000 L90.000,119.000 L91.000,119.000 ZM209.000,118.000 L181.000,118.000 L181.000,90.000 L209.000,118.000 ZM212.000,118.000 L211.000,118.000 L181.000,88.000 L181.000,60.000 L211.000,60.000 L240.000,89.000 L240.000,118.000 L212.000,118.000 ZM211.000,119.000 L240.000,148.000 L240.000,177.000 L211.000,177.000 L181.000,147.000 L181.000,119.000 L210.000,119.000 L211.000,119.000 ZM240.000,119.000 L240.000,146.000 L213.000,119.000 L240.000,119.000 ZM272.000,118.000 L241.000,118.000 L241.000,88.000 L212.000,59.000 L181.000,59.000 L181.000,29.000 L152.000,-0.000 L120.000,-0.000 L120.000,30.000 L149.000,59.000 L120.000,59.000 L120.000,87.000 L92.000,59.000 L60.000,59.000 L60.000,89.000 L89.000,118.000 L60.000,118.000 L60.000,146.000 L32.000,118.000 L0.000,118.000 L0.000,148.000 L30.000,178.000 L61.000,178.000 L61.000,149.000 L90.000,178.000 L121.000,178.000 L121.000,147.000 L93.000,119.000 L121.000,119.000 L121.000,90.000 L150.000,119.000 L180.000,119.000 L180.000,148.000 L210.000,178.000 L241.000,178.000 L241.000,149.000 L270.000,178.000 L301.000,178.000 L301.000,147.000 L272.000,118.000 ZM271.000,119.000 L300.000,148.000 L300.000,177.000 L271.000,177.000 L241.000,147.000 L241.000,119.000 L271.000,119.000 Z"/>
</svg>