<svg
 xmlns="http://www.w3.org/2000/svg"
 xmlns:xlink="http://www.w3.org/1999/xlink"
 width="481px" height="178px">
<path fill-rule="evenodd"  fill="rgb(221, 221, 221)"
 d="M240.000,31.000 L240.000,59.000 L212.000,59.000 L181.000,29.000 L150.000,59.000 L121.000,59.000 L121.000,31.000 L151.000,1.000 L210.000,1.000 L240.000,31.000 ZM360.000,31.000 L360.000,59.000 L332.000,59.000 L301.000,29.000 L270.000,59.000 L241.000,59.000 L241.000,31.000 L271.000,1.000 L330.000,1.000 L360.000,31.000 ZM450.000,1.000 L480.000,31.000 L480.000,59.000 L452.000,59.000 L421.000,29.000 L390.000,59.000 L361.000,59.000 L361.000,31.000 L391.000,1.000 L450.000,1.000 ZM240.000,90.000 L240.000,118.000 L212.000,118.000 L181.000,88.000 L150.000,118.000 L121.000,118.000 L121.000,90.000 L151.000,60.000 L210.000,60.000 L240.000,90.000 ZM269.965,60.000 L240.510,88.510 L212.000,60.000 L211.000,59.000 L210.965,59.000 L152.000,59.000 L181.000,30.000 L210.965,59.000 L211.000,59.000 L212.000,60.000 L240.000,60.000 L241.000,60.000 L269.965,60.000 ZM360.000,90.000 L360.000,118.000 L332.000,118.000 L301.000,88.000 L270.000,118.000 L241.000,118.000 L241.000,90.000 L271.000,60.000 L330.000,60.000 L360.000,90.000 ZM389.965,60.000 L360.510,88.510 L332.000,60.000 L331.000,59.000 L330.965,59.000 L272.000,59.000 L301.000,30.000 L330.965,59.000 L331.000,59.000 L332.000,60.000 L360.000,60.000 L361.000,60.000 L389.965,60.000 ZM450.000,60.000 L480.000,90.000 L480.000,118.000 L452.000,118.000 L421.000,88.000 L390.000,118.000 L361.000,118.000 L361.000,90.000 L391.000,60.000 L450.000,60.000 ZM481.000,148.000 L452.000,119.000 L451.000,118.000 L450.965,118.000 L392.000,118.000 L421.000,89.000 L450.965,118.000 L451.000,118.000 L452.000,119.000 L481.000,119.000 L481.000,89.000 L452.000,60.000 L451.000,59.000 L450.965,59.000 L392.000,59.000 L421.000,30.000 L450.965,59.000 L451.000,59.000 L452.000,60.000 L481.000,60.000 L481.000,30.000 L451.000,-0.000 L391.000,-0.000 L360.510,29.510 L331.000,-0.000 L271.000,-0.000 L240.510,29.510 L211.000,-0.000 L151.000,-0.000 L120.000,30.000 L120.000,60.000 L149.965,60.000 L120.000,89.000 L120.000,119.000 L151.000,119.000 L181.000,89.000 L212.000,119.000 L240.000,119.000 L241.000,119.000 L269.965,119.000 L240.000,148.000 L240.000,178.000 L271.000,178.000 L301.000,148.000 L332.000,178.000 L360.000,178.000 L361.000,178.000 L391.000,178.000 L421.000,148.000 L452.000,178.000 L481.000,178.000 L481.000,148.000 ZM360.000,149.000 L360.000,177.000 L332.000,177.000 L301.000,147.000 L270.000,177.000 L241.000,177.000 L241.000,149.000 L271.000,119.000 L330.000,119.000 L360.000,149.000 ZM389.965,119.000 L360.510,147.510 L332.000,119.000 L331.000,118.000 L330.965,118.000 L272.000,118.000 L301.000,89.000 L330.965,118.000 L331.000,118.000 L332.000,119.000 L360.000,119.000 L361.000,119.000 L389.965,119.000 ZM450.000,119.000 L480.000,149.000 L480.000,177.000 L452.000,177.000 L421.000,147.000 L390.000,177.000 L361.000,177.000 L361.000,149.000 L391.000,119.000 L450.000,119.000 Z"/>
<path fill-rule="evenodd"  fill="rgb(221, 221, 221)"
 d="M91.000,-0.000 L121.000,30.000 L121.000,60.000 L92.000,60.000 L61.000,30.000 L31.000,60.000 L-0.000,60.000 L-0.000,30.000 L31.000,-0.000 L91.000,-0.000 ZM90.000,1.000 L120.000,31.000 L120.000,59.000 L92.000,59.000 L61.000,29.000 L30.000,59.000 L1.000,59.000 L1.000,31.000 L31.000,1.000 L90.000,1.000 Z"/>
</svg>