<svg
 xmlns="http://www.w3.org/2000/svg"
 xmlns:xlink="http://www.w3.org/1999/xlink"
 width="361px" height="237px">
<path fill-rule="evenodd"  fill="rgb(221, 221, 221)"
 d="M120.000,31.000 L120.000,59.000 L92.000,59.000 L61.000,29.000 L30.000,59.000 L1.000,59.000 L1.000,31.000 L31.000,1.000 L90.000,1.000 L120.000,31.000 ZM240.000,31.000 L240.000,59.000 L212.000,59.000 L181.000,29.000 L150.000,59.000 L121.000,59.000 L121.000,31.000 L151.000,1.000 L210.000,1.000 L240.000,31.000 ZM330.000,1.000 L360.000,31.000 L360.000,59.000 L332.000,59.000 L301.000,29.000 L270.000,59.000 L241.000,59.000 L241.000,31.000 L271.000,1.000 L330.000,1.000 ZM120.000,90.000 L120.000,118.000 L92.000,118.000 L61.000,87.999 L30.000,118.000 L1.000,118.000 L1.000,90.000 L31.000,60.000 L90.000,60.000 L120.000,90.000 ZM149.965,60.000 L120.510,88.510 L92.000,60.000 L91.000,59.000 L90.965,59.000 L32.000,59.000 L61.000,30.000 L90.965,59.000 L91.000,59.000 L92.000,60.000 L120.000,60.000 L121.000,60.000 L149.965,60.000 ZM240.000,90.000 L240.000,118.000 L212.000,118.000 L181.000,87.999 L150.000,118.000 L121.000,118.000 L121.000,90.000 L151.000,60.000 L210.000,60.000 L240.000,90.000 ZM269.965,60.000 L240.510,88.510 L212.000,60.000 L211.000,59.000 L210.965,59.000 L152.000,59.000 L181.000,30.000 L210.965,59.000 L211.000,59.000 L212.000,60.000 L240.000,60.000 L241.000,60.000 L269.965,60.000 ZM330.000,60.000 L360.000,90.000 L360.000,118.000 L332.000,118.000 L301.000,87.999 L270.000,118.000 L241.000,118.000 L241.000,90.000 L271.000,60.000 L330.000,60.000 ZM120.000,148.999 L120.000,177.000 L92.000,177.000 L61.000,147.000 L30.000,177.000 L1.000,177.000 L1.000,148.999 L31.000,119.000 L90.000,119.000 L120.000,148.999 ZM149.965,119.000 L120.510,147.510 L92.000,119.000 L91.000,118.000 L90.965,118.000 L32.000,118.000 L61.000,89.000 L90.965,118.000 L91.000,118.000 L92.000,119.000 L120.000,119.000 L121.000,119.000 L149.965,119.000 ZM240.000,148.999 L240.000,177.000 L212.000,177.000 L181.000,147.000 L150.000,177.000 L121.000,177.000 L121.000,148.999 L151.000,119.000 L210.000,119.000 L240.000,148.999 ZM269.965,119.000 L240.510,147.510 L212.000,119.000 L211.000,118.000 L210.965,118.000 L152.000,118.000 L181.000,89.000 L210.965,118.000 L211.000,118.000 L212.000,119.000 L240.000,119.000 L241.000,119.000 L269.965,119.000 ZM330.000,119.000 L360.000,148.999 L360.000,177.000 L332.000,177.000 L301.000,147.000 L270.000,177.000 L241.000,177.000 L241.000,148.999 L271.000,119.000 L330.000,119.000 ZM361.000,207.000 L332.000,178.000 L331.000,177.000 L330.965,177.000 L272.000,177.000 L301.000,148.000 L330.965,177.000 L331.000,177.000 L332.000,178.000 L361.000,178.000 L361.000,148.000 L332.000,119.000 L331.000,118.000 L330.965,118.000 L272.000,118.000 L301.000,89.000 L330.965,118.000 L331.000,118.000 L332.000,119.000 L361.000,119.000 L361.000,89.000 L332.000,60.000 L331.000,59.000 L330.965,59.000 L272.000,59.000 L301.000,30.000 L330.965,59.000 L331.000,59.000 L332.000,60.000 L361.000,60.000 L361.000,30.000 L331.000,-0.000 L271.000,-0.000 L240.510,29.510 L211.000,-0.000 L151.000,-0.000 L120.510,29.510 L91.000,-0.000 L31.000,-0.000 L0.000,30.000 L0.000,60.000 L29.965,60.000 L0.000,89.000 L0.000,119.000 L29.965,119.000 L0.000,148.000 L0.000,178.000 L31.000,178.000 L61.000,148.000 L92.000,178.000 L120.000,178.000 L121.000,178.000 L149.965,178.000 L120.000,207.000 L120.000,237.000 L151.000,237.000 L181.000,207.000 L212.000,237.000 L240.000,237.000 L241.000,237.000 L271.000,237.000 L301.000,207.000 L332.000,237.000 L361.000,237.000 L361.000,207.000 ZM240.000,208.000 L240.000,236.000 L212.000,236.000 L181.000,206.000 L150.000,236.000 L121.000,236.000 L121.000,208.000 L151.000,178.000 L210.000,178.000 L240.000,208.000 ZM269.965,178.000 L240.510,206.510 L212.000,178.000 L211.000,177.000 L210.965,177.000 L152.000,177.000 L181.000,148.000 L210.965,177.000 L211.000,177.000 L212.000,178.000 L240.000,178.000 L241.000,178.000 L269.965,178.000 ZM330.000,178.000 L360.000,208.000 L360.000,236.000 L332.000,236.000 L301.000,206.000 L270.000,236.000 L241.000,236.000 L241.000,208.000 L271.000,178.000 L330.000,178.000 Z"/>
</svg>