<svg
 xmlns="http://www.w3.org/2000/svg"
 xmlns:xlink="http://www.w3.org/1999/xlink"
 width="121px" height="119px">
<path fill-rule="evenodd"  fill="rgb(221, 221, 221)"
 d="M31.000,1.000 L60.000,30.000 L60.000,59.000 L31.000,59.000 L1.000,29.000 L1.000,1.000 L31.000,1.000 ZM60.000,60.000 L60.000,89.000 L90.000,119.000 L121.000,119.000 L121.000,88.000 L93.000,60.000 L121.000,60.000 L121.000,29.000 L92.000,-0.000 L60.000,-0.000 L60.000,28.000 L32.000,-0.000 L-0.000,-0.000 L-0.000,30.000 L30.000,60.000 L60.000,60.000 ZM89.000,59.000 L61.000,59.000 L61.000,31.000 L89.000,59.000 ZM92.000,59.000 L91.000,59.000 L61.000,29.000 L61.000,1.000 L91.000,1.000 L120.000,30.000 L120.000,59.000 L92.000,59.000 ZM91.000,60.000 L120.000,89.000 L120.000,118.000 L91.000,118.000 L61.000,88.000 L61.000,60.000 L90.000,60.000 L91.000,60.000 Z"/>
</svg>