<svg
 xmlns="http://www.w3.org/2000/svg"
 xmlns:xlink="http://www.w3.org/1999/xlink"
 width="181px" height="237px">
<path fill-rule="evenodd"  fill="rgb(221, 221, 221)"
 d="M31.000,60.000 L60.000,89.000 L60.000,118.000 L31.000,118.000 L1.000,88.000 L1.000,60.000 L31.000,60.000 ZM91.000,60.000 L120.000,89.000 L120.000,118.000 L91.000,118.000 L61.000,88.000 L61.000,60.000 L91.000,60.000 ZM152.000,59.000 L151.000,59.000 L121.000,29.000 L121.000,1.000 L151.000,1.000 L180.000,30.000 L180.000,59.000 L152.000,59.000 ZM149.000,118.000 L121.000,118.000 L121.000,90.000 L149.000,118.000 ZM152.000,118.000 L151.000,118.000 L121.000,88.000 L121.000,60.000 L150.000,60.000 L151.000,60.000 L180.000,89.000 L180.000,118.000 L152.000,118.000 ZM149.000,177.000 L120.000,177.000 L120.000,207.000 L150.000,237.000 L181.000,237.000 L181.000,206.000 L153.000,178.000 L181.000,178.000 L181.000,147.000 L153.000,119.000 L181.000,119.000 L181.000,88.000 L153.000,60.000 L181.000,60.000 L181.000,29.000 L152.000,-0.000 L120.000,-0.000 L120.000,30.000 L149.000,59.000 L120.000,59.000 L120.000,87.000 L92.000,59.000 L60.000,59.000 L60.000,87.000 L32.000,59.000 L0.000,59.000 L0.000,89.000 L30.000,119.000 L61.000,119.000 L61.000,90.000 L90.000,119.000 L120.000,119.000 L120.000,148.000 L149.000,177.000 ZM152.000,177.000 L151.000,177.000 L121.000,147.000 L121.000,119.000 L150.000,119.000 L151.000,119.000 L180.000,148.000 L180.000,177.000 L152.000,177.000 ZM151.000,178.000 L180.000,207.000 L180.000,236.000 L151.000,236.000 L121.000,206.000 L121.000,178.000 L150.000,178.000 L151.000,178.000 Z"/>
</svg>