<svg
 xmlns="http://www.w3.org/2000/svg"
 xmlns:xlink="http://www.w3.org/1999/xlink"
 width="361px" height="178px">
<path fill-rule="evenodd"  fill="rgb(221, 221, 221)"
 d="M32.000,59.000 L31.000,59.000 L1.000,29.000 L1.000,1.000 L31.000,1.000 L60.000,30.000 L60.000,59.000 L32.000,59.000 ZM60.000,60.000 L60.000,87.000 L33.000,60.000 L60.000,60.000 ZM89.000,59.000 L61.000,59.000 L61.000,31.000 L89.000,59.000 ZM92.000,59.000 L91.000,59.000 L61.000,29.000 L61.000,1.000 L91.000,1.000 L120.000,30.000 L120.000,59.000 L92.000,59.000 ZM120.000,60.000 L120.000,87.000 L93.000,60.000 L120.000,60.000 ZM149.000,59.000 L121.000,59.000 L121.000,31.000 L149.000,59.000 ZM152.000,59.000 L151.000,59.000 L121.000,29.000 L121.000,1.000 L151.000,1.000 L180.000,30.000 L180.000,59.000 L152.000,59.000 ZM180.000,60.000 L180.000,87.000 L153.000,60.000 L180.000,60.000 ZM209.000,59.000 L181.000,59.000 L181.000,31.000 L209.000,59.000 ZM212.000,59.000 L211.000,59.000 L181.000,29.000 L181.000,1.000 L211.000,1.000 L240.000,30.000 L240.000,59.000 L212.000,59.000 ZM240.000,60.000 L240.000,87.000 L213.000,60.000 L240.000,60.000 ZM32.000,118.000 L31.000,118.000 L1.000,88.000 L1.000,60.000 L30.000,60.000 L31.000,60.000 L60.000,89.000 L60.000,118.000 L32.000,118.000 ZM31.000,119.000 L60.000,148.000 L60.000,177.000 L31.000,177.000 L1.000,147.000 L1.000,119.000 L30.000,119.000 L31.000,119.000 ZM60.000,119.000 L60.000,146.000 L33.000,119.000 L60.000,119.000 ZM89.000,118.000 L61.000,118.000 L61.000,90.000 L89.000,118.000 ZM92.000,118.000 L91.000,118.000 L61.000,88.000 L61.000,60.000 L90.000,60.000 L91.000,60.000 L120.000,89.000 L120.000,118.000 L92.000,118.000 ZM91.000,119.000 L120.000,148.000 L120.000,177.000 L91.000,177.000 L61.000,147.000 L61.000,119.000 L90.000,119.000 L91.000,119.000 ZM120.000,119.000 L120.000,146.000 L93.000,119.000 L120.000,119.000 ZM149.000,118.000 L121.000,118.000 L121.000,90.000 L149.000,118.000 ZM152.000,118.000 L151.000,118.000 L121.000,88.000 L121.000,60.000 L150.000,60.000 L151.000,60.000 L180.000,89.000 L180.000,118.000 L152.000,118.000 ZM151.000,119.000 L180.000,148.000 L180.000,177.000 L151.000,177.000 L121.000,147.000 L121.000,119.000 L150.000,119.000 L151.000,119.000 ZM180.000,119.000 L180.000,146.000 L153.000,119.000 L180.000,119.000 ZM209.000,118.000 L181.000,118.000 L181.000,90.000 L209.000,118.000 ZM212.000,118.000 L211.000,118.000 L181.000,88.000 L181.000,60.000 L210.000,60.000 L211.000,60.000 L240.000,89.000 L240.000,118.000 L212.000,118.000 ZM211.000,119.000 L240.000,148.000 L240.000,177.000 L211.000,177.000 L181.000,147.000 L181.000,119.000 L210.000,119.000 L211.000,119.000 ZM240.000,119.000 L240.000,146.000 L213.000,119.000 L240.000,119.000 ZM269.000,118.000 L241.000,118.000 L241.000,90.000 L269.000,118.000 ZM272.000,118.000 L271.000,118.000 L241.000,88.000 L241.000,60.000 L271.000,60.000 L300.000,89.000 L300.000,118.000 L272.000,118.000 ZM271.000,119.000 L300.000,148.000 L300.000,177.000 L271.000,177.000 L241.000,147.000 L241.000,119.000 L270.000,119.000 L271.000,119.000 ZM300.000,119.000 L300.000,146.000 L273.000,119.000 L300.000,119.000 ZM332.000,118.000 L301.000,118.000 L301.000,88.000 L272.000,59.000 L241.000,59.000 L241.000,29.000 L212.000,-0.000 L180.000,-0.000 L180.000,28.000 L152.000,-0.000 L120.000,-0.000 L120.000,28.000 L92.000,-0.000 L60.000,-0.000 L60.000,28.000 L32.000,-0.000 L-0.000,-0.000 L-0.000,30.000 L29.000,59.000 L-0.000,59.000 L-0.000,89.000 L29.000,118.000 L-0.000,118.000 L-0.000,148.000 L30.000,178.000 L61.000,178.000 L61.000,149.000 L90.000,178.000 L121.000,178.000 L121.000,149.000 L150.000,178.000 L181.000,178.000 L181.000,149.000 L210.000,178.000 L241.000,178.000 L241.000,149.000 L270.000,178.000 L301.000,178.000 L301.000,149.000 L330.000,178.000 L361.000,178.000 L361.000,147.000 L332.000,118.000 ZM331.000,119.000 L360.000,148.000 L360.000,177.000 L331.000,177.000 L301.000,147.000 L301.000,119.000 L331.000,119.000 Z"/>
</svg>