<svg
 xmlns="http://www.w3.org/2000/svg"
 xmlns:xlink="http://www.w3.org/1999/xlink"
 width="241px" height="119px">
<path fill-rule="evenodd"  fill="rgb(221, 221, 221)"
 d="M120.000,31.000 L120.000,59.000 L92.000,59.000 L61.000,29.000 L30.000,59.000 L1.000,59.000 L1.000,31.000 L31.000,1.000 L90.000,1.000 L120.000,31.000 ZM210.000,1.000 L240.000,31.000 L240.000,59.000 L212.000,59.000 L181.000,29.000 L150.000,59.000 L121.000,59.000 L121.000,31.000 L151.000,1.000 L210.000,1.000 ZM241.000,89.000 L212.000,60.000 L211.000,59.000 L210.965,59.000 L152.000,59.000 L181.000,30.000 L210.965,59.000 L211.000,59.000 L212.000,60.000 L241.000,60.000 L241.000,30.000 L211.000,-0.000 L151.000,-0.000 L120.510,29.510 L91.000,-0.000 L31.000,-0.000 L-0.000,30.000 L-0.000,60.000 L31.000,60.000 L61.000,30.000 L92.000,60.000 L120.000,60.000 L121.000,60.000 L149.965,60.000 L120.000,89.000 L120.000,119.000 L151.000,119.000 L181.000,89.000 L212.000,119.000 L241.000,119.000 L241.000,89.000 ZM210.000,60.000 L240.000,90.000 L240.000,118.000 L212.000,118.000 L181.000,88.000 L150.000,118.000 L121.000,118.000 L121.000,90.000 L151.000,60.000 L210.000,60.000 Z"/>
</svg>