<svg
 xmlns="http://www.w3.org/2000/svg"
 xmlns:xlink="http://www.w3.org/1999/xlink"
 width="181px" height="60px">
<path fill-rule="evenodd"  fill="rgb(221, 221, 221)"
 d="M31.000,1.000 L60.000,30.000 L60.000,59.000 L31.000,59.000 L1.000,29.000 L1.000,1.000 L31.000,1.000 ZM91.000,1.000 L120.000,30.000 L120.000,59.000 L91.000,59.000 L61.000,29.000 L61.000,1.000 L91.000,1.000 ZM152.000,-0.000 L120.000,-0.000 L120.000,28.000 L92.000,-0.000 L60.000,-0.000 L60.000,28.000 L32.000,-0.000 L0.000,-0.000 L0.000,30.000 L30.000,60.000 L61.000,60.000 L61.000,31.000 L90.000,60.000 L121.000,60.000 L121.000,31.000 L150.000,60.000 L181.000,60.000 L181.000,29.000 L152.000,-0.000 ZM151.000,1.000 L180.000,30.000 L180.000,59.000 L151.000,59.000 L121.000,29.000 L121.000,1.000 L151.000,1.000 Z"/>
</svg>