<svg
 xmlns="http://www.w3.org/2000/svg"
 xmlns:xlink="http://www.w3.org/1999/xlink"
 width="16px" height="16px">
<path fill-rule="evenodd"  fill="rgb(51, 51, 63)"
 d="M2.222,7.200 C2.222,4.217 4.639,1.800 7.622,1.800 C10.604,1.800 13.022,4.217 13.022,7.200 C13.022,10.182 10.604,12.600 7.622,12.600 C4.639,12.600 2.222,10.182 2.222,7.200 ZM0.422,7.200 C0.422,11.176 3.645,14.400 7.622,14.400 C9.243,14.400 10.738,13.864 11.942,12.960 L14.262,15.280 C14.659,15.677 15.304,15.677 15.702,15.280 C16.099,14.882 16.099,14.237 15.702,13.840 L13.382,11.520 C14.286,10.316 14.822,8.821 14.822,7.200 C14.822,3.223 11.598,-0.000 7.622,-0.000 C3.645,-0.000 0.422,3.223 0.422,7.200 Z"/>
</svg>