<svg
 xmlns="http://www.w3.org/2000/svg"
 xmlns:xlink="http://www.w3.org/1999/xlink"
 width="19px" height="20px">
<path fill-rule="evenodd"  fill="rgb(68, 68, 68)"
 d="M15.437,12.969 C14.264,12.969 13.222,13.531 12.572,14.397 L6.980,11.577 C7.074,11.263 7.125,10.930 7.125,10.586 C7.125,10.120 7.032,9.675 6.865,9.268 L12.725,5.792 C13.379,6.550 14.353,7.031 15.437,7.031 C17.402,7.031 19.000,5.454 19.000,3.515 C19.000,1.577 17.402,-0.000 15.437,-0.000 C13.473,-0.000 11.875,1.577 11.875,3.515 C11.875,3.963 11.960,4.392 12.116,4.786 L6.241,8.270 C5.587,7.535 4.629,7.070 3.562,7.070 C1.598,7.070 -0.000,8.647 -0.000,10.586 C-0.000,12.524 1.598,14.101 3.562,14.101 C4.755,14.101 5.812,13.520 6.459,12.630 L12.035,15.442 C11.931,15.771 11.875,16.121 11.875,16.484 C11.875,18.423 13.473,20.000 15.437,20.000 C17.402,20.000 19.000,18.423 19.000,16.484 C19.000,14.546 17.402,12.969 15.437,12.969 ZM15.437,1.172 C16.747,1.172 17.812,2.223 17.812,3.515 C17.812,4.808 16.747,5.859 15.437,5.859 C14.128,5.859 13.062,4.808 13.062,3.515 C13.062,2.223 14.128,1.172 15.437,1.172 ZM3.562,12.930 C2.253,12.930 1.187,11.878 1.187,10.586 C1.187,9.294 2.253,8.242 3.562,8.242 C4.872,8.242 5.937,9.294 5.937,10.586 C5.937,11.878 4.872,12.930 3.562,12.930 ZM15.437,18.828 C14.128,18.828 13.062,17.776 13.062,16.484 C13.062,15.192 14.128,14.141 15.437,14.141 C16.747,14.141 17.812,15.192 17.812,16.484 C17.812,17.776 16.747,18.828 15.437,18.828 Z"/>
</svg>