<svg
 xmlns="http://www.w3.org/2000/svg"
 xmlns:xlink="http://www.w3.org/1999/xlink"
 width="20px" height="20px">
<path fill-rule="evenodd"  opacity="0.502" fill="rgb(51, 51, 51)"
 d="M11.171,12.987 C9.942,12.095 8.845,10.965 7.816,9.528 C7.318,8.812 6.991,8.216 6.764,7.616 C7.142,7.318 7.495,7.005 7.839,6.704 C7.969,6.592 8.099,6.476 8.229,6.364 C9.203,5.523 9.281,4.351 8.429,3.383 L7.319,2.123 C7.192,1.980 7.062,1.832 6.941,1.685 C6.697,1.400 6.441,1.104 6.175,0.825 C5.779,0.381 5.288,0.125 4.755,0.088 C4.223,0.050 3.693,0.235 3.229,0.619 L3.220,0.627 L1.638,2.005 C1.042,2.519 0.679,3.171 0.559,3.948 C0.372,5.201 0.671,6.400 0.909,7.187 C1.493,9.117 2.434,10.931 3.883,12.901 C5.638,15.271 7.808,17.191 10.333,18.607 C11.297,19.137 12.587,19.775 14.063,19.965 C14.153,19.975 14.248,19.986 14.335,19.991 C15.332,20.056 16.194,19.757 16.899,19.096 C16.904,19.087 16.913,19.084 16.918,19.075 C17.161,18.821 17.436,18.595 17.726,18.352 C17.924,18.190 18.127,18.019 18.325,17.839 C18.783,17.427 19.043,16.930 19.080,16.405 C19.117,15.875 18.924,15.352 18.518,14.896 L16.310,12.380 C15.920,11.920 15.430,11.654 14.894,11.618 C14.361,11.582 13.835,11.775 13.368,12.178 L11.907,13.437 C11.798,13.369 11.689,13.306 11.585,13.243 C11.434,13.155 11.291,13.073 11.171,12.987 ZM6.846,10.188 L6.850,10.192 C7.952,11.733 9.138,12.954 10.472,13.918 C10.642,14.041 10.818,14.143 10.986,14.240 C11.136,14.327 11.279,14.410 11.399,14.495 C11.416,14.505 11.432,14.519 11.449,14.529 C11.591,14.612 11.728,14.655 11.871,14.664 C12.230,14.688 12.471,14.481 12.549,14.413 L14.130,13.047 C14.287,12.911 14.533,12.751 14.806,12.770 C15.074,12.788 15.283,12.969 15.407,13.124 L15.415,13.133 L17.633,15.648 C18.047,16.114 18.016,16.562 17.544,16.985 C17.363,17.154 17.179,17.305 16.981,17.472 C16.682,17.718 16.378,17.977 16.089,18.271 C15.621,18.703 15.092,18.887 14.418,18.843 C14.353,18.839 14.284,18.834 14.219,18.826 C12.941,18.661 11.781,18.087 10.914,17.605 C8.540,16.272 6.495,14.463 4.840,12.227 C3.473,10.362 2.587,8.659 2.044,6.857 C1.708,5.756 1.614,4.909 1.732,4.124 C1.808,3.622 2.032,3.217 2.418,2.884 L4.004,1.515 C4.230,1.331 4.465,1.239 4.687,1.255 C4.962,1.274 5.174,1.453 5.304,1.602 L5.316,1.615 C5.566,1.880 5.802,2.152 6.050,2.442 C6.176,2.590 6.306,2.738 6.436,2.890 L7.546,4.149 C7.977,4.638 7.949,5.060 7.457,5.485 C7.322,5.601 7.192,5.717 7.058,5.829 C6.668,6.174 6.297,6.495 5.895,6.805 C5.886,6.813 5.877,6.817 5.872,6.825 C5.473,7.170 5.519,7.536 5.581,7.787 L5.591,7.826 C5.851,8.587 6.240,9.313 6.846,10.188 Z"/>
</svg>