<svg
 xmlns="http://www.w3.org/2000/svg"
 xmlns:xlink="http://www.w3.org/1999/xlink"
 width="27px" height="16px">
<path fill-rule="evenodd"  fill="rgb(255, 255, 255)"
 d="M26.702,14.219 C26.669,14.149 26.639,14.090 26.611,14.043 C26.148,13.197 25.263,12.161 23.957,10.931 L23.930,10.904 L23.916,10.889 L23.902,10.874 L23.888,10.874 C23.295,10.302 22.920,9.918 22.763,9.720 C22.475,9.345 22.411,8.964 22.568,8.579 C22.679,8.289 23.096,7.674 23.818,6.735 C24.198,6.238 24.499,5.838 24.721,5.538 C26.324,3.380 27.019,2.000 26.805,1.399 L26.723,1.259 C26.667,1.174 26.524,1.098 26.292,1.027 C26.060,0.956 25.764,0.945 25.403,0.991 L21.401,1.019 C21.336,0.997 21.244,0.998 21.124,1.027 C21.003,1.055 20.943,1.069 20.943,1.069 L20.873,1.104 L20.818,1.147 C20.772,1.174 20.721,1.224 20.665,1.294 C20.610,1.365 20.563,1.447 20.526,1.540 C20.091,2.677 19.595,3.732 19.040,4.709 C18.697,5.290 18.382,5.794 18.095,6.222 C17.807,6.649 17.566,6.963 17.372,7.165 C17.177,7.367 17.002,7.529 16.844,7.651 C16.687,7.773 16.566,7.825 16.483,7.806 C16.399,7.788 16.321,7.768 16.246,7.749 C16.117,7.665 16.013,7.550 15.934,7.405 C15.855,7.259 15.802,7.076 15.774,6.855 C15.746,6.635 15.730,6.445 15.725,6.285 C15.721,6.125 15.723,5.900 15.732,5.609 C15.742,5.318 15.746,5.121 15.746,5.018 C15.746,4.661 15.753,4.274 15.767,3.857 C15.781,3.439 15.793,3.108 15.802,2.864 C15.811,2.620 15.816,2.362 15.816,2.090 C15.816,1.817 15.799,1.604 15.767,1.449 C15.735,1.294 15.686,1.144 15.621,0.998 C15.557,0.852 15.462,0.741 15.337,0.661 C15.212,0.580 15.056,0.517 14.871,0.471 C14.380,0.357 13.755,0.297 12.995,0.288 C11.273,0.268 10.166,0.382 9.675,0.625 C9.480,0.728 9.304,0.869 9.147,1.047 C8.980,1.254 8.957,1.367 9.077,1.385 C9.633,1.469 10.026,1.672 10.258,1.991 L10.341,2.161 C10.406,2.281 10.471,2.497 10.536,2.807 C10.601,3.117 10.643,3.460 10.661,3.834 C10.707,4.520 10.707,5.107 10.661,5.594 C10.615,6.083 10.571,6.463 10.529,6.735 C10.487,7.009 10.425,7.228 10.341,7.397 C10.258,7.566 10.203,7.669 10.174,7.707 C10.147,7.744 10.124,7.768 10.105,7.777 C9.985,7.823 9.860,7.848 9.730,7.848 C9.600,7.848 9.443,7.783 9.258,7.651 C9.073,7.519 8.880,7.338 8.681,7.108 C8.482,6.878 8.257,6.558 8.007,6.144 C7.757,5.732 7.498,5.243 7.229,4.680 L7.007,4.271 C6.868,4.009 6.678,3.626 6.437,3.124 C6.196,2.622 5.983,2.136 5.798,1.666 C5.724,1.469 5.613,1.320 5.465,1.215 L5.395,1.174 C5.349,1.136 5.275,1.097 5.173,1.054 C5.071,1.012 4.964,0.981 4.853,0.963 L1.046,0.991 C0.657,0.991 0.393,1.080 0.254,1.258 L0.199,1.343 C0.171,1.390 0.157,1.465 0.157,1.569 C0.157,1.672 0.184,1.798 0.240,1.948 C0.796,3.272 1.400,4.548 2.053,5.779 C2.706,7.007 3.274,7.999 3.756,8.749 C4.237,9.500 4.728,10.208 5.228,10.874 C5.728,11.541 6.060,11.968 6.221,12.155 C6.384,12.344 6.511,12.485 6.604,12.577 L6.951,12.916 C7.173,13.141 7.500,13.411 7.931,13.725 C8.361,14.040 8.838,14.349 9.362,14.656 C9.885,14.960 10.494,15.209 11.189,15.401 C11.884,15.593 12.560,15.671 13.218,15.634 L14.816,15.634 C15.139,15.605 15.385,15.502 15.552,15.324 L15.607,15.253 C15.645,15.198 15.679,15.110 15.711,14.993 C15.744,14.875 15.760,14.746 15.760,14.606 C15.750,14.202 15.781,13.838 15.850,13.514 C15.919,13.191 15.998,12.946 16.086,12.783 C16.175,12.619 16.274,12.480 16.385,12.368 C16.496,12.255 16.575,12.187 16.622,12.163 C16.668,12.139 16.705,12.124 16.733,12.114 C16.955,12.039 17.217,12.112 17.518,12.332 C17.819,12.553 18.101,12.826 18.365,13.148 C18.629,13.473 18.947,13.836 19.317,14.241 C19.688,14.644 20.012,14.944 20.290,15.142 L20.568,15.310 C20.753,15.423 20.994,15.526 21.290,15.620 C21.587,15.714 21.846,15.738 22.068,15.691 L25.625,15.635 C25.977,15.635 26.251,15.574 26.445,15.458 C26.639,15.341 26.755,15.212 26.792,15.071 C26.830,14.930 26.831,14.770 26.799,14.592 C26.766,14.414 26.734,14.289 26.702,14.219 Z"/>
</svg>