<svg
 xmlns="http://www.w3.org/2000/svg"
 xmlns:xlink="http://www.w3.org/1999/xlink"
 width="28px" height="22px">
<path fill-rule="evenodd"  fill="rgb(255, 255, 255)"
 d="M24.675,1.006 C23.874,0.743 18.937,0.480 14.000,0.480 C9.063,0.480 4.126,0.743 3.325,1.006 C1.191,1.664 0.657,6.266 0.657,11.000 C0.657,15.734 1.191,20.336 3.325,20.994 C4.126,21.256 9.063,21.520 14.000,21.520 C18.937,21.520 23.874,21.256 24.675,20.994 C26.809,20.336 27.343,15.734 27.343,11.000 C27.343,6.266 26.809,1.664 24.675,1.006 ZM11.331,16.917 L11.331,5.082 L19.337,11.000 L11.331,16.917 Z"/>
</svg>